<?xml version="1.0" encoding="utf-8"?>
<!-- Generator: Adobe Illustrator 22.0.1, SVG Export Plug-In . SVG Version: 6.00 Build 0)  -->
<svg version="1.1" id="Layer_1" xmlns="http://www.w3.org/2000/svg" xmlns:xlink="http://www.w3.org/1999/xlink" x="0px" y="0px"
	 viewBox="0 0 254.3 254.3" style="enable-background:new 0 0 254.3 254.3;" xml:space="preserve">
<style type="text/css">
	.st0{fill:#0A0A0A;}
	.st1{fill:#F90606;}
	.st2{fill:#FFFFFF;}
</style>
<path class="st0" d="M254.3,33.3C254.3,14.9,239.4,0,221,0H33.3C14.9,0,0,14.9,0,33.3V221c0,18.4,14.9,33.3,33.3,33.3H221
	c18.4,0,33.3-14.9,33.3-33.3V33.3z M87.3,154.6c-15.2,0-27.5-12.3-27.5-27.5c0-15.2,12.3-27.5,27.5-27.5c15.2,0,27.5,12.3,27.5,27.5
	C114.7,142.3,102.4,154.6,87.3,154.6L87.3,154.6z M167.9,154.6c-15.2,0-27.5-12.3-27.5-27.5c0-15.2,12.3-27.5,27.5-27.5
	c15.2,0,27.5,12.3,27.5,27.5C195.4,142.3,183.1,154.6,167.9,154.6L167.9,154.6z M167.9,154.6"/>
</svg>
