<?xml version="1.0" encoding="utf-8"?>

<svg version="1.1" id="Layer_1" xmlns="http://www.w3.org/2000/svg" xmlns:xlink="http://www.w3.org/1999/xlink" x="0px" y="0px" viewBox="0 0 254.2 254.2" style="enable-background:new 0 0 254.2 254.2;" xml:space="preserve">

<g>
&#x9;
&#x9;&#x9;<ellipse transform="matrix(0.8507 -0.5257 0.5257 0.8507 -35.9092 82.4513)" class="st1" cx="127.2" cy="104.4" rx="29.8" ry="29.8"></ellipse>
&#x9;<path class="st1" d="M221,0H33.3C14.9,0,0,14.9,0,33.3V221c0,18.4,14.9,33.3,33.3,33.3H221c18.4,0,33.3-14.9,33.3-33.3V33.3&#xA;&#x9;&#x9;C254.2,14.9,239.4,0,221,0z M183.2,115.2c-5.6,33-35.9,55.9-53.6,90.1c-1,1.9-3.8,1.9-4.8,0c-19.6-38-54.6-64.4-54.6-100.9&#xA;&#x9;&#x9;c0-32.1,26.6-58,58.9-56.9C163.7,48.7,189,81.1,183.2,115.2z"></path>
</g>
</svg>