<?xml version="1.0" encoding="utf-8"?>

<svg version="1.1" id="Layer_1" xmlns="http://www.w3.org/2000/svg" xmlns:xlink="http://www.w3.org/1999/xlink" x="0px" y="0px" viewBox="0 0 254.3 254.3" style="enable-background:new 0 0 254.3 254.3;" xml:space="preserve">

<path class="st1" d="M254.3,33.3C254.3,14.9,239.4,0,221,0H33.3C14.9,0,0,14.9,0,33.3V221c0,18.4,14.9,33.3,33.3,33.3H221&#xA;&#x9;c18.4,0,33.3-14.9,33.3-33.3V33.3z M57.1,207.6c-5.5,1.5-10.6-3.6-9.1-9.1l9.1-34l34,34L57.1,207.6z M203.8,83.8L103.3,184.4&#xA;&#x9;l-33.8-33.8L170,50c4.8-4.8,12.5-4.8,17.3,0l16.6,16.6C208.6,71.3,208.6,79,203.8,83.8L203.8,83.8z M203.8,83.8"></path>
</svg>