<?xml version="1.0" encoding="utf-8"?>

<svg version="1.1" id="Layer_1" xmlns="http://www.w3.org/2000/svg" xmlns:xlink="http://www.w3.org/1999/xlink" x="0px" y="0px" viewBox="0 0 32 32" style="enable-background:new 0 0 32 32;" xml:space="preserve">

<g>
&#x9;<g>
&#x9;&#x9;<g>
&#x9;&#x9;&#x9;<path d="M12.3,7.6L12.3,7.6l-6,1.1C6,8.7,5.9,8.9,5.8,9.1C5.7,9.3,5.8,9.6,6,9.7L8.6,12v5.5l0.1,4.4l-3.2,3.9&#xA;&#x9;&#x9;&#x9;&#x9;c-0.2,0.2-0.2,0.5-0.1,0.7c0.1,0.2,0.3,0.3,0.5,0.3c0,0,0.1,0,0.1,0l3.3-0.5l13.5-2.4V5.7L12.3,7.6z"></path>
&#x9;&#x9;&#x9;<path class="st0" d="M12.2,7L12.2,7C12.1,7,12.1,7,12.2,7L12.2,7l-0.1,0h0l-5.9,1C5.7,8.2,5.3,8.5,5.2,8.9&#xA;&#x9;&#x9;&#x9;&#x9;c-0.1,0.4,0,0.9,0.4,1.2L8,12.3v5.2L8,21.7l-3,3.7c-0.3,0.4-0.4,0.9-0.1,1.4c0.2,0.4,0.6,0.6,1,0.6c0.1,0,0.1,0,0.2,0l3.3-0.5&#xA;&#x9;&#x9;&#x9;&#x9;c0,0,0,0,0,0l13.4-2.4v-1.2L9.2,25.6l-3.3,0.5l3.3-4.1l-0.1-4.6v-5.8L6.4,9.3l5.9-1l0,0l0,0l0,0l0.1,0l10.5-1.8V5.1L12.2,7z"></path>
&#x9;&#x9;</g>
&#x9;&#x9;<g>
&#x9;&#x9;&#x9;<path d="M19.7,24.4L19.7,24.4l6-1.1c0.2,0,0.4-0.2,0.5-0.4c0.1-0.2,0-0.5-0.2-0.6L23.4,20v-5.5l-0.1-4.4l3.2-3.9&#xA;&#x9;&#x9;&#x9;&#x9;c0.2-0.2,0.2-0.5,0.1-0.7c-0.1-0.2-0.3-0.3-0.5-0.3c0,0-0.1,0-0.1,0l-3.3,0.5L9.1,8.2v18.1L19.7,24.4z"></path>
&#x9;&#x9;&#x9;<path class="st0" d="M19.8,25L19.8,25C19.9,25,19.9,25,19.8,25L19.8,25l0.1,0h0l5.9-1c0.5-0.1,0.8-0.4,0.9-0.9&#xA;&#x9;&#x9;&#x9;&#x9;c0.1-0.4,0-0.9-0.4-1.2L24,19.7v-5.2L24,10.3l3-3.7c0.3-0.4,0.4-0.9,0.1-1.4c-0.2-0.4-0.6-0.6-1-0.6c-0.1,0-0.1,0-0.2,0l-3.3,0.5&#xA;&#x9;&#x9;&#x9;&#x9;c0,0,0,0,0,0L9.1,7.6v1.2l13.6-2.4l3.3-0.5l-3.3,4.1l0.1,4.6v5.8l2.8,2.5l-5.9,1l0,0l0,0l0,0l-0.1,0L9.1,25.6v1.2L19.8,25z"></path>
&#x9;&#x9;</g>
&#x9;&#x9;<path class="st1" d="M21.3,14.3c-0.1,0.3-0.7,0.7-1.9,1.1c1.2,0,1.8,0.1,1.8,0.3v4.5c-0.1,0.6-0.3,1-0.6,1.3&#xA;&#x9;&#x9;&#x9;c-0.3,0.3-0.7,0.5-1.2,0.6l-6.9,1.2l-2.6,0.5l1-1.2L11,11.1l-1-0.8l2.6-0.5l6.9-1.2c0.5-0.1,0.9,0,1.2,0.1&#xA;&#x9;&#x9;&#x9;c0.3,0.2,0.5,0.6,0.6,1.1V14.3z M14.5,21.5l3-0.5l0-4.4l-2.9,0.5v0l-0.1,0v0L14.5,21.5z M14.5,15.4l3-0.5l0-4.4l-3,0.5L14.5,15.4z&#xA;&#x9;&#x9;&#x9;"></path>
&#x9;</g>
</g>
</svg>