<?xml version="1.0" encoding="utf-8"?>

<svg version="1.1" id="Layer_1" xmlns="http://www.w3.org/2000/svg" xmlns:xlink="http://www.w3.org/1999/xlink" x="0px" y="0px" viewBox="0 0 32 32" style="enable-background:new 0 0 32 32;" xml:space="preserve">

<g>
&#x9;<g>
&#x9;&#x9;<path d="M10.6,28.6c-0.1,0-0.1,0-0.2,0c0,0-0.1,0-0.1,0c-0.7,0-1.7-0.1-2.6-0.4c-0.4,0-0.7-0.2-1-0.5c-0.2-0.2-0.4-0.6-0.3-1.1&#xA;&#x9;&#x9;&#x9;c-0.5-1-0.7-2.3-0.7-3.2c0-0.6,0.2-1,0.3-1.5c0.1-0.2,0.1-0.4,0.2-0.7c-0.1-0.8-0.2-1.6-0.1-2.5c0-0.1,0-0.2,0-0.2&#xA;&#x9;&#x9;&#x9;c0-0.1,0-0.1,0-0.2c0,0,0-0.1,0-0.1c0,0,0-0.1,0-0.1c0,0,0,0,0-0.1c0,0,0-0.1,0-0.1c0,0,0-0.1,0-0.1l0,0c0,0,0-0.1,0-0.1&#xA;&#x9;&#x9;&#x9;c0,0,0-0.1,0-0.1c0-0.1,0.1-0.2,0.1-0.2c0,0,0-0.1,0-0.1c0,0,0.1-0.1,0.1-0.1c0,0,0-0.1,0.1-0.1c0,0,0-0.1,0.1-0.1&#xA;&#x9;&#x9;&#x9;c0-0.1,0.1-0.1,0.1-0.2c0,0,0-0.1,0.1-0.1c0,0,0.1-0.1,0.1-0.1c0,0,0.1-0.1,0.1-0.1c0,0,0,0,0,0c0.1-0.1,0.2-0.2,0.2-0.2&#xA;&#x9;&#x9;&#x9;c0,0,0.1,0,0.1-0.1c0,0,0,0,0.1,0c0,0,0.1-0.1,0.1-0.1c0,0,0,0,0.1,0c0.4-0.3,0.9-0.5,1.4-0.6c0.4-0.1,0.7-0.2,1-0.5&#xA;&#x9;&#x9;&#x9;c0.3-0.2,0.5-0.4,0.8-0.6l-0.3-0.9c-0.2-0.1-0.6-0.5-0.7-1.1c0,0,0,0,0,0c0,0,0,0,0-0.1l0-0.1c0-0.7-0.1-2,0.5-4.6l0,0&#xA;&#x9;&#x9;&#x9;c0-0.2,0.2-0.3,0.3-0.5c0,0,0,0,0,0C11.1,6.3,12,4,15.2,3.5c0,0,0,0,0.1,0c0.1,0,0.3,0,0.5,0c0,0,0,0,0,0c0,0,0,0,0.1,0&#xA;&#x9;&#x9;&#x9;c0.1,0,0.1,0,0.2,0l0.1,0c0.1,0,0.2,0,0.3,0c0,0,0,0,0,0c0.1,0,0.1,0,0.2,0c0,0,0.1,0,0.1,0c0,0,0.1,0,0.1,0l0.1,0&#xA;&#x9;&#x9;&#x9;c0,0,0.1,0,0.1,0c0,0,0.1,0,0.1,0c0,0,0.1,0,0.1,0l0.1,0c0.1,0,0.1,0,0.2,0c0,0,0.1,0,0.1,0c0.1,0,0.1,0,0.2,0.1l0,0&#xA;&#x9;&#x9;&#x9;c0,0,0.1,0,0.2,0.1c0,0,0,0,0,0c0.3,0.1,0.6,0.3,0.9,0.5c0.3,0.2,0.6,0.4,0.8,0.6C20.3,5.4,20.8,6,21,6.6c0.1,0,0.3,0.1,0.4,0.2&#xA;&#x9;&#x9;&#x9;l0.3,0.4C22,7.5,22,7.9,21.9,8.2c-0.1,0.3-0.4,0.9-0.7,1.4c0,0,0,0,0,0c0,0,0,0,0,0c-0.1,0.1-0.1,0.2-0.3,0.4&#xA;&#x9;&#x9;&#x9;c0.1,0.2,0.1,0.3,0,0.5c-0.6,1.6-0.6,1.6-0.6,1.6c-0.1,0.2-0.1,0.3-0.2,0.4c-0.1,0.1-0.2,0.2-0.3,0.3c0.1,0.1,0.1,0.2,0.2,0.3&#xA;&#x9;&#x9;&#x9;c0.5,0.1,1,0.4,1.3,0.5c0.4,0.2,0.8,0.4,1.2,0.4c0.5,0,1.4,0.2,2.2,0.9c0,0,0.1,0.1,0.1,0.1c0,0,0.1,0.1,0.1,0.1&#xA;&#x9;&#x9;&#x9;c0,0,0.1,0.1,0.1,0.1c0,0,0,0,0.1,0.1c0.3,0.3,0.5,0.6,0.7,1c0,0,0,0,0,0.1c0,0.1,0.1,0.2,0.1,0.2c0,0.1,0.1,0.2,0.1,0.3&#xA;&#x9;&#x9;&#x9;c0.5,1.5,0.3,3.3,0.2,3.9c0.1,0.4,0.3,1.3-0.1,2.7c-0.2,0.6-0.4,1.2-0.6,1.7c-0.3,0.6-0.6,1-0.8,1.2l0,0c0,0,0,0,0,0&#xA;&#x9;&#x9;&#x9;c-0.8,1-2.5,2.1-5.5,2.1c-0.1,0-0.2,0-0.3,0c0,0-0.1,0-0.1,0l-0.2,0c-1.1,0-3.1-0.1-5.3-0.8c-0.4,0.4-1.1,0.7-1.9,0.8&#xA;&#x9;&#x9;&#x9;c0,0,0,0-0.1,0l0,0C11,28.6,10.7,28.6,10.6,28.6z"></path>
&#x9;&#x9;<path class="st1" d="M16.4,3.7C16.4,3.7,16.4,3.7,16.4,3.7c0.1,0,0.1,0,0.2,0c0,0,0,0,0.1,0l0,0c0,0,0.1,0,0.1,0c0,0,0.1,0,0.1,0&#xA;&#x9;&#x9;&#x9;l0,0c0,0,0.1,0,0.1,0c0,0,0.1,0,0.1,0c0,0,0.1,0,0.1,0l0.1,0c0,0,0.1,0,0.1,0l0,0c0,0,0,0,0,0c0.1,0,0.1,0,0.2,0.1c0,0,0,0,0,0&#xA;&#x9;&#x9;&#x9;c0.1,0,0.1,0,0.1,0.1c0,0,0,0,0,0c0.3,0.1,0.6,0.3,0.9,0.4C19,4.6,19.3,4.8,19.5,5c0.6,0.6,1.1,1.2,1.3,1.8c0.1,0,0.3,0.1,0.4,0.2&#xA;&#x9;&#x9;&#x9;l0.3,0.4c0.2,0.2,0.2,0.4,0.2,0.7C21.6,8.4,21.3,9,21,9.4c0,0,0,0,0,0h0c0,0,0,0,0,0c0,0,0,0,0,0c-0.1,0.1-0.2,0.3-0.4,0.5&#xA;&#x9;&#x9;&#x9;c0,0,0,0,0,0c0.1,0.1,0.1,0.3,0.1,0.4c0,0-0.6,1.6-0.6,1.6c0,0.1-0.1,0.2-0.2,0.3c-0.1,0.1-0.2,0.2-0.3,0.3c0,0-0.1,0.1-0.2,0.1&#xA;&#x9;&#x9;&#x9;c0.1,0.2,0.3,0.4,0.4,0.6c0,0,0,0,0,0c0.5,0.1,1,0.3,1.3,0.5c0.4,0.2,0.9,0.4,1.3,0.4c0.4,0,1.3,0.2,2.1,0.8c0,0,0,0,0,0&#xA;&#x9;&#x9;&#x9;c0,0,0,0,0,0l0,0c0,0,0.1,0.1,0.1,0.1c0,0,0,0,0,0c0,0,0.1,0,0.1,0.1c0,0,0,0,0.1,0.1c0.3,0.3,0.5,0.6,0.7,0.9c0,0,0,0,0,0.1&#xA;&#x9;&#x9;&#x9;c0,0.1,0.1,0.2,0.1,0.2c0,0.1,0.1,0.2,0.1,0.2c0.5,1.5,0.3,3.3,0.2,3.8c0.1,0.3,0.3,1.2-0.1,2.6c-0.2,0.6-0.4,1.2-0.6,1.7&#xA;&#x9;&#x9;&#x9;c-0.3,0.6-0.5,0.9-0.7,1.2l0,0c0,0,0,0,0,0c-0.8,0.9-2.4,2-5.3,2c-0.1,0-0.2,0-0.3,0c0,0-0.1,0-0.1,0c0,0,0,0-0.1,0&#xA;&#x9;&#x9;&#x9;c0,0-0.1,0-0.1,0c-1.1,0-3.2-0.1-5.3-0.8c0,0,0,0,0,0c-0.4,0.4-1,0.7-1.8,0.9c0,0,0,0,0,0c0,0,0,0,0,0c0,0,0,0,0,0c0,0,0,0,0,0&#xA;&#x9;&#x9;&#x9;c-0.3,0-0.6,0.1-0.8,0.1c-0.1,0-0.1,0-0.2,0c0,0-0.1,0-0.1,0c-0.7,0-1.7-0.1-2.5-0.4c-0.3,0-0.6-0.2-0.8-0.4&#xA;&#x9;&#x9;&#x9;c-0.1-0.2-0.3-0.5-0.2-1c-0.6-1-0.7-2.3-0.7-3.1c0-0.5,0.2-0.9,0.3-1.4c0.1-0.2,0.2-0.5,0.2-0.8c-0.1-0.8-0.2-1.6-0.1-2.5&#xA;&#x9;&#x9;&#x9;c0-0.1,0-0.1,0-0.2c0-0.1,0-0.1,0-0.2c0,0,0,0,0,0c0,0,0,0,0-0.1l0,0c0,0,0,0,0-0.1c0,0,0,0,0-0.1c0,0,0-0.1,0-0.1&#xA;&#x9;&#x9;&#x9;c0,0,0-0.1,0-0.1c0,0,0,0,0,0c0,0,0-0.1,0-0.1c0,0,0-0.1,0-0.1c0-0.1,0.1-0.1,0.1-0.2c0,0,0-0.1,0-0.1c0,0,0,0,0,0c0,0,0,0,0,0&#xA;&#x9;&#x9;&#x9;c0,0,0-0.1,0.1-0.1c0,0,0,0,0.1-0.1c0-0.1,0.1-0.1,0.1-0.2c0,0,0,0,0.1-0.1c0,0,0-0.1,0.1-0.1c0,0,0.1-0.1,0.1-0.1c0,0,0,0,0,0&#xA;&#x9;&#x9;&#x9;c0,0,0,0,0,0c0.1-0.1,0.1-0.1,0.2-0.2c0,0,0.1,0,0.1-0.1c0,0,0,0,0,0c0,0,0.1-0.1,0.1-0.1c0,0,0,0,0.1,0c0.4-0.3,0.8-0.4,1.3-0.5&#xA;&#x9;&#x9;&#x9;c0.4-0.1,0.8-0.3,1.1-0.5c0.3-0.3,0.6-0.5,0.9-0.6c0,0,0,0,0-0.1l-0.4-1.1c-0.3-0.1-0.6-0.4-0.6-1c0,0,0,0,0,0l0,0c0,0,0,0,0,0&#xA;&#x9;&#x9;&#x9;c0,0,0-0.1,0-0.1c0-0.7-0.1-2,0.5-4.6c0,0,0,0,0,0c0-0.1,0.1-0.2,0.2-0.3c0,0,0.1,0,0.1-0.1c0.2-0.8,1-3,4.2-3.5c0,0,0,0,0,0&#xA;&#x9;&#x9;&#x9;c0,0,0,0,0.1,0c0.1,0,0.3,0,0.5,0c0,0,0,0,0,0c0.1,0,0.1,0,0.2,0l0.1,0C16.2,3.7,16.3,3.7,16.4,3.7 M21,9.5L21,9.5 M16.4,3.2&#xA;&#x9;&#x9;&#x9;c-0.1,0-0.2,0-0.3,0l-0.1,0c-0.1,0-0.2,0-0.2,0c0,0-0.1,0-0.1,0c-0.2,0-0.3,0-0.5,0.1c0,0-0.1,0-0.1,0C11.9,3.7,10.9,6,10.6,7&#xA;&#x9;&#x9;&#x9;c-0.2,0.2-0.3,0.3-0.3,0.6c0,0,0,0,0,0c-0.6,2.6-0.5,4-0.5,4.7c0,0,0,0.1,0,0.1c0,0,0,0,0,0l0,0c0,0,0,0,0,0.1&#xA;&#x9;&#x9;&#x9;c0,0.5,0.3,1,0.7,1.3l0.2,0.6c-0.2,0.1-0.4,0.3-0.7,0.5c-0.2,0.2-0.5,0.4-0.8,0.4c-0.6,0.1-1.1,0.3-1.5,0.6c0,0,0,0-0.1,0&#xA;&#x9;&#x9;&#x9;c0,0-0.1,0.1-0.1,0.1c0,0,0,0-0.1,0c0,0,0,0,0,0c0,0-0.1,0-0.1,0.1c-0.1,0.1-0.2,0.2-0.3,0.2c0,0,0,0,0,0c0,0,0,0,0,0&#xA;&#x9;&#x9;&#x9;c0,0-0.1,0.1-0.1,0.1c0,0-0.1,0.1-0.1,0.1c0,0,0,0.1-0.1,0.1c-0.1,0.1-0.1,0.1-0.2,0.2c0,0,0,0.1-0.1,0.1c0,0,0,0.1-0.1,0.1&#xA;&#x9;&#x9;&#x9;c0,0,0,0,0,0c0,0,0,0,0,0.1c0,0,0,0.1-0.1,0.1c0,0.1-0.1,0.2-0.1,0.2c0,0,0,0.1,0,0.1c0,0,0,0.1,0,0.1l0,0c0,0,0,0.1,0,0.1&#xA;&#x9;&#x9;&#x9;c0,0,0,0.1,0,0.1c0,0,0,0,0,0.1c0,0,0,0,0,0.1l0,0c0,0,0,0.1,0,0.1v0c0,0,0,0,0,0c0,0.1,0,0.1,0,0.2c0,0.1,0,0.2,0,0.2&#xA;&#x9;&#x9;&#x9;c-0.2,0.9-0.1,1.7,0.1,2.5c-0.1,0.2-0.1,0.4-0.2,0.6c-0.2,0.5-0.3,0.9-0.3,1.5c0,0.9,0.1,2.2,0.7,3.3c0,0.6,0.2,1,0.4,1.2&#xA;&#x9;&#x9;&#x9;c0.3,0.3,0.7,0.6,1.1,0.6c0.9,0.3,1.9,0.4,2.7,0.4c0,0,0.1,0,0.1,0c0,0,0.1,0,0.2,0c0.2,0,0.5,0,0.8-0.1c0,0,0,0,0,0&#xA;&#x9;&#x9;&#x9;c0,0,0.1,0,0.1,0c0.8-0.1,1.4-0.4,1.9-0.8c2.1,0.6,4.2,0.8,5.2,0.8c0,0,0.1,0,0.1,0l0,0c0,0,0.1,0,0.1,0c0.1,0,0.2,0,0.3,0&#xA;&#x9;&#x9;&#x9;c3.1,0,4.8-1.2,5.7-2.2c0,0,0,0,0,0l0,0c0.2-0.2,0.5-0.6,0.8-1.3c0.2-0.5,0.4-1.1,0.6-1.7c0.4-1.4,0.3-2.3,0.1-2.8&#xA;&#x9;&#x9;&#x9;c0.1-0.7,0.3-2.4-0.2-3.9c0-0.1-0.1-0.2-0.1-0.3c0-0.1-0.1-0.2-0.1-0.2c0,0,0-0.1,0-0.1c-0.2-0.4-0.5-0.8-0.8-1.1c0,0,0,0-0.1-0.1&#xA;&#x9;&#x9;&#x9;c0,0-0.1-0.1-0.1-0.1c0,0,0,0,0,0c0,0-0.1-0.1-0.1-0.1l0,0c0,0,0,0,0,0c0,0,0,0,0,0c-0.9-0.7-1.9-0.9-2.4-1&#xA;&#x9;&#x9;&#x9;c-0.4,0-0.8-0.2-1.1-0.4c-0.3-0.2-0.7-0.4-1.2-0.5c0.1-0.1,0.1-0.1,0.2-0.2c0.1-0.1,0.2-0.3,0.3-0.5c0,0,0.6-1.6,0.6-1.6&#xA;&#x9;&#x9;&#x9;c0.1-0.2,0.1-0.3,0-0.5c0.1-0.1,0.2-0.2,0.2-0.3c0,0,0,0,0,0c0,0,0,0,0,0c0.4-0.5,0.6-1.1,0.8-1.4c0.2-0.4,0.1-0.9-0.3-1.2&#xA;&#x9;&#x9;&#x9;l-0.3-0.4c-0.1-0.1-0.2-0.2-0.4-0.3c-0.3-0.6-0.7-1.2-1.4-1.8C19.6,4.4,19.3,4.2,19,4c-0.3-0.2-0.6-0.3-0.9-0.5c0,0,0,0,0,0&#xA;&#x9;&#x9;&#x9;c-0.1,0-0.1,0-0.2-0.1c0,0,0,0,0,0c-0.1,0-0.1,0-0.2-0.1c0,0,0,0,0,0c0,0,0,0,0,0l0,0c-0.1,0-0.1,0-0.2,0c0,0,0,0,0,0l-0.1,0&#xA;&#x9;&#x9;&#x9;c-0.1,0-0.1,0-0.2,0c0,0-0.1,0-0.1,0c0,0-0.1,0-0.1,0l0,0c0,0-0.1,0-0.1,0c-0.1,0-0.1,0-0.1,0l0,0c0,0-0.1,0-0.1,0&#xA;&#x9;&#x9;&#x9;C16.5,3.2,16.5,3.2,16.4,3.2C16.4,3.2,16.4,3.2,16.4,3.2L16.4,3.2z"></path>
&#x9;</g>
&#x9;<g>
&#x9;&#x9;<g>
&#x9;&#x9;&#x9;<path d="M25.4,23.2c-0.2,0.7-0.4,1.2-0.6,1.6c-0.3,0.6-0.5,0.9-0.7,1.1c0,0,0,0,0,0c-0.8,0.9-2.3,1.9-5.2,1.9c0,0,0,0,0,0&#xA;&#x9;&#x9;&#x9;&#x9;c-0.1,0-0.2,0-0.2,0h0c-1.3,0-3.3-0.2-5.2-0.8c0,0-0.1,0-0.1,0c0,0-0.1,0-0.1,0h0v0h0l0,0c-0.4,0.6-1.2,0.8-1.8,0.9h0&#xA;&#x9;&#x9;&#x9;&#x9;c0,0,0,0,0,0c0,0,0,0,0,0c0,0,0,0,0,0c0,0,0,0,0,0c0,0,0,0,0,0c-0.1,0-0.4,0-0.9,0c0,0,0,0,0,0c-0.7,0-1.8-0.1-2.6-0.4&#xA;&#x9;&#x9;&#x9;&#x9;c-0.5,0-0.9-0.4-0.7-1.1c-0.6-0.9-0.7-2.2-0.7-3c0-0.8,0.3-1.2,0.5-2.2c-0.1-0.8-0.2-1.6-0.1-2.4c0,0,0.1,0,0.1,0&#xA;&#x9;&#x9;&#x9;&#x9;c0.2,0.1,0.3,0.1,0.5,0.1c0.2,0,0.3,0,0.5,0c0.2,0,0.3-0.1,0.5-0.1c-0.2,0-0.3,0.1-0.5,0.1c-0.2,0-0.3,0-0.5,0&#xA;&#x9;&#x9;&#x9;&#x9;c-0.2,0-0.3-0.1-0.4-0.1c0,0-0.1,0-0.1-0.1c0-0.1,0-0.1,0-0.2c0.1,0.1,0.2,0.1,0.5,0.2c0.7,0.2,1.3-0.1,1.4-0.3&#xA;&#x9;&#x9;&#x9;&#x9;c0.1-0.2-0.2-0.7-0.3-0.9c-0.1-0.1-0.2-0.5-0.2-0.7c0-0.1,0-0.1-0.1-0.1c0.4-0.3,0.8-0.4,1.2-0.5c0.5-0.1,0.9-0.3,1.3-0.6&#xA;&#x9;&#x9;&#x9;&#x9;c0.3-0.3,0.6-0.5,1-0.6c-0.1,0.4,0.5,2.1,1.1,2.8c0,0,0.1,0,0.1,0c0,0,0,0,0.1,0c0,0,0,0,0,0c0,0,0,0,0,0c0,0,0.1-0.1,0.1-0.2&#xA;&#x9;&#x9;&#x9;&#x9;c0.3-0.6,0.8-0.6,1-0.1c0,0.1,0.1,0.1,0.1,0.2c0-0.2-0.1-0.3-0.1-0.5l0.4,0.2l1.5,0.9l1.2-1c0.1,0.1,0.1,0.2,0.2,0.3&#xA;&#x9;&#x9;&#x9;&#x9;c0,0,0,0,0,0.1c0,0,0,0,0,0c0,0,0,0,0,0c0,0,0,0,0.1,0c0,0,0,0,0.1,0c1.4-1,2.1-2.8,2-3.6c0,0,0,0,0-0.1c0.4,0,0.9,0.2,1.2,0.5&#xA;&#x9;&#x9;&#x9;&#x9;c0.5,0.3,1,0.5,1.5,0.5c0.6,0,1.3,0.3,1.9,0.7c0,0-0.1,0-0.1-0.1c0,0,0,0,0,0c0,0,0,0,0,0c-0.1-0.1-0.2-0.2-0.3-0.2&#xA;&#x9;&#x9;&#x9;&#x9;c0,0-0.1,0-0.1,0c0,0-0.1,0-0.1-0.1c0,0-0.1,0.1-0.1,0.1c0,0.2,0,0.6-0.1,0.7c-0.1,0.2-0.3,0.8-0.2,0.9c0.1,0.2,0.8,0.3,1.4,0&#xA;&#x9;&#x9;&#x9;&#x9;c0.3-0.1,0.4-0.2,0.5-0.3c0,0.1,0.1,0.2,0.1,0.3l0,0c-0.1,0.1-0.2,0.2-0.4,0.2c-0.1,0.1-0.3,0.1-0.4,0.1c-0.2,0-0.3,0-0.5,0&#xA;&#x9;&#x9;&#x9;&#x9;c-0.2,0-0.3,0-0.5-0.1c0.1,0.1,0.3,0.1,0.5,0.1c0.2,0,0.3,0,0.5,0c0.2,0,0.3,0,0.5-0.1c0.1,0,0.3-0.1,0.4-0.2&#xA;&#x9;&#x9;&#x9;&#x9;c0.6,1.7,0.2,3.7,0.2,3.7S25.8,21.6,25.4,23.2z"></path>
&#x9;&#x9;</g>
&#x9;&#x9;<g>
&#x9;&#x9;&#x9;<path d="M7.7,21.3C7.4,21.3,7,22,7,22c0.1-0.4,0.3-0.7,0.3-0.7c-0.2-0.5-0.1-2-0.1-2C7.3,21.2,7.7,21.3,7.7,21.3z"></path>
&#x9;&#x9;</g>
&#x9;&#x9;<g>
&#x9;&#x9;&#x9;<path d="M9.8,18c-0.2,0.3-0.8,1-1,1.4c0.1-0.2,0.4-0.8,0.9-1.6c0.1-0.1,0.1-0.2,0-0.3c-0.1-0.2-0.3-0.7-0.6-1.3&#xA;&#x9;&#x9;&#x9;&#x9;c0,0,0.7,0.8,0.8,1.5C9.9,17.9,9.9,18,9.8,18z"></path>
&#x9;&#x9;</g>
&#x9;&#x9;<g>
&#x9;&#x9;&#x9;<path d="M23.5,17.9c-0.3-0.4-1-0.9-1.3-1.1c-0.1-0.1-0.1-0.2-0.1-0.3c-0.1-0.7,0.4-1.5,0.5-1.6c-0.2,0.6-0.3,1.1-0.4,1.4&#xA;&#x9;&#x9;&#x9;&#x9;c0,0.1,0,0.2,0.1,0.2C23,17.2,23.3,17.7,23.5,17.9z"></path>
&#x9;&#x9;</g>
&#x9;&#x9;<g>
&#x9;&#x9;&#x9;<path d="M25.1,20.8c0.2,0.2,0.1,0.8,0.1,0.8c0-0.6-0.6-0.7-0.6-0.7c0.5-0.5,0.5-3.2,0.5-3.2C25.4,18.9,25.1,20.8,25.1,20.8z"></path>
&#x9;&#x9;</g>
&#x9;&#x9;<g>
&#x9;&#x9;&#x9;<polygon points="19.1,15.6 18.6,16 17.4,17 17.2,17.1 16,18.2 14.4,17.3 14,17 13.2,16.6 13.2,16.6 13.2,11.4 16.1,10.7 &#xA;&#x9;&#x9;&#x9;&#x9;16.1,10.7 16.6,10.6 17.2,10.4 17.4,10.4 17.4,10.4 18,10.3 18.4,12.4 18.5,12.5 18.5,12.9 18.5,12.9 18.6,13.2 18.7,13.8 &#xA;&#x9;&#x9;&#x9;&#x9;18.7,13.8 19,15.2 &#x9;&#x9;&#x9;"></polygon>
&#x9;&#x9;</g>
&#x9;&#x9;<g>
&#x9;&#x9;&#x9;<g>
&#x9;&#x9;&#x9;&#x9;<path d="M19.6,13.9c0,0.7-0.7,2.6-2,3.6c0,0,0,0-0.1,0c0,0,0,0-0.1,0c0,0,0,0,0,0c0,0,0,0,0,0c0,0,0,0,0-0.1&#xA;&#x9;&#x9;&#x9;&#x9;&#x9;c0-0.1-0.1-0.2-0.2-0.3l-1.2,1l-1.5-0.9L14,17c0.1,0.2,0.1,0.3,0.1,0.5c0-0.1-0.1-0.1-0.1-0.2c-0.3-0.4-0.8-0.4-1,0.1&#xA;&#x9;&#x9;&#x9;&#x9;&#x9;c0,0,0,0.1-0.1,0.2c0,0,0,0,0,0c0,0,0,0,0,0c0,0,0,0,0,0c0,0,0,0-0.1,0c0,0-0.1,0-0.1,0c-0.6-0.7-1.1-2.3-1.1-2.8c0,0,0,0,0.1,0&#xA;&#x9;&#x9;&#x9;&#x9;&#x9;c0,0,0,0,0.1,0c0,0,0,0,0-0.1c0-0.1,0-0.1,0-0.2c0,0,0-0.1,0-0.1v0c0-0.1,0-0.2,0.1-0.2c0,0,0,0,0-0.1v0&#xA;&#x9;&#x9;&#x9;&#x9;&#x9;c0.1-0.3,0.2-0.6,0.4-0.9c0.3,0.4,0.6,0.7,0.9,0.9c0.3,0.2,0.5,0.4,0.8,0.6c0.7,0.5,1.2,0.9,1.4,1.4c0,0,1.2-0.5,3.2-3.4&#xA;&#x9;&#x9;&#x9;&#x9;&#x9;c0,0,0,0,0,0c0-0.1,0.1-0.1,0.1-0.2c0,0,0.1,0.1,0.1,0.1c0.3,0.3,0.5,0.7,0.7,1.1c0,0,0,0,0,0.1C19.5,13.8,19.6,13.8,19.6,13.9&#xA;&#x9;&#x9;&#x9;&#x9;&#x9;C19.6,13.8,19.6,13.9,19.6,13.9z"></path>
&#x9;&#x9;&#x9;</g>
&#x9;&#x9;</g>
&#x9;&#x9;<g>
&#x9;&#x9;&#x9;<g>
&#x9;&#x9;&#x9;&#x9;<path d="M8.9,18.3c-0.1,0.2-0.7,0.5-1.4,0.3c-0.3-0.1-0.5-0.1-0.5-0.2c0,0,0,0,0-0.1c0,0,0,0,0-0.1c0,0,0,0,0-0.1c0,0,0,0,0-0.1&#xA;&#x9;&#x9;&#x9;&#x9;&#x9;c0,0,0,0,0-0.1c0,0,0,0,0,0c0,0,0,0,0-0.1c0,0,0,0,0-0.1c0-0.1,0.1-0.1,0.1-0.2c0,0,0,0,0-0.1c0,0,0,0,0-0.1c0,0,0-0.1,0.1-0.1&#xA;&#x9;&#x9;&#x9;&#x9;&#x9;c0,0,0,0,0-0.1c0-0.1,0.1-0.1,0.1-0.2c0,0,0,0,0.1-0.1c0,0,0-0.1,0.1-0.1c0,0,0-0.1,0.1-0.1c0,0,0,0,0,0c0,0,0,0,0,0&#xA;&#x9;&#x9;&#x9;&#x9;&#x9;c0.1-0.1,0.1-0.1,0.2-0.2c0,0,0,0,0.1-0.1c0,0,0,0,0,0c0,0,0.1,0,0.1-0.1c0,0,0,0,0,0c0,0,0.1,0.1,0.1,0.1&#xA;&#x9;&#x9;&#x9;&#x9;&#x9;c0,0.2,0.1,0.6,0.2,0.7C8.7,17.7,8.9,18.2,8.9,18.3z"></path>
&#x9;&#x9;&#x9;</g>
&#x9;&#x9;</g>
&#x9;&#x9;<g>
&#x9;&#x9;&#x9;<g>
&#x9;&#x9;&#x9;&#x9;<path d="M22.5,23.6c0,0-0.1,0-0.1,0c-0.1,0-0.2-0.1-0.3-0.1c-0.1-0.1-0.2-0.2-0.4-0.2c-0.2-0.1-0.3-0.1-0.5-0.1c0,0-0.1,0-0.1,0&#xA;&#x9;&#x9;&#x9;&#x9;&#x9;c0.1,0.1,0.1,0.2,0.2,0.3c0.1,0.1,0.1,0.1,0.1,0.2c0.1,0.1,0.1,0.2,0.2,0.4c0,0.1,0,0.2,0.1,0.2c0,0,0,0,0,0c0,0,0,0-0.1-0.1&#xA;&#x9;&#x9;&#x9;&#x9;&#x9;c0,0,0,0,0,0c-0.1-0.1-0.2-0.4-0.4-0.5l0,0c0,0,0,0,0,0c0,0-0.1-0.1-0.1-0.1c0,0-0.1,0-0.1,0h0c-0.2-0.1-0.4-0.2-0.7-0.2&#xA;&#x9;&#x9;&#x9;&#x9;&#x9;c-0.1,0-0.2,0-0.3,0c0.1,0,0.1,0.1,0.2,0.1c0,0,0,0,0,0c0,0,0,0,0,0c0.1,0.1,0.3,0.2,0.4,0.3c0.1,0.1,0.1,0.1,0.2,0.2&#xA;&#x9;&#x9;&#x9;&#x9;&#x9;c0,0,0,0.2,0,0.2c-0.1-0.1-0.2-0.2-0.4-0.3c-0.2-0.1-0.3-0.1-0.3-0.2c0,0-0.1,0-0.1-0.1c-0.1-0.1-0.2,0-0.3-0.1&#xA;&#x9;&#x9;&#x9;&#x9;&#x9;c-0.1,0-0.2,0-0.2-0.1c-0.1,0-0.2-0.1-0.2-0.1c0,0,0,0,0,0c0,0,0.2-0.1,0.2-0.1c0.1,0,0.1,0,0.2,0h0c0,0,0,0,0,0&#xA;&#x9;&#x9;&#x9;&#x9;&#x9;c0.2-0.1,0.3-0.2,0.6-0.2c0.1,0,0.2-0.1,0.3-0.2c0,0,0,0,0.1,0c0.2,0,0.4,0.1,0.6,0.1c0,0,0,0,0.1,0c-0.1,0-0.2-0.1-0.2-0.2&#xA;&#x9;&#x9;&#x9;&#x9;&#x9;c0,0-0.1-0.1-0.1-0.1c-0.1-0.1-0.2-0.2-0.3-0.4c0,0,0,0,0,0c0-0.1-0.1-0.1-0.1-0.2c-0.1-0.3-0.2-0.5-0.2-0.8&#xA;&#x9;&#x9;&#x9;&#x9;&#x9;c0-0.4,0.1-0.7,0.3-1c0.2-0.3,0.4-0.5,0.6-0.8c0,0,0,0,0,0c-0.4,0.5-0.7,1.1-0.7,1.8c0,0.3,0.1,0.6,0.3,0.9&#xA;&#x9;&#x9;&#x9;&#x9;&#x9;c0.1,0.1,0.2,0.2,0.3,0.4c0,0,0,0,0,0c0,0,0,0,0,0c0.1,0.1,0.2,0.2,0.2,0.3c0,0,0,0,0,0.1c0,0,0,0,0,0c0.1,0,0.2,0,0.3,0.1&#xA;&#x9;&#x9;&#x9;&#x9;&#x9;C22.2,23.1,22.4,23.3,22.5,23.6C22.6,23.6,22.6,23.6,22.5,23.6z"></path>
&#x9;&#x9;&#x9;</g>
&#x9;&#x9;</g>
&#x9;&#x9;<g>
&#x9;&#x9;&#x9;<g>
&#x9;&#x9;&#x9;&#x9;<path d="M10.8,26c0.1,0.3,0.3,0.5,0.5,0.7c0.1,0.1,0.1,0.1,0.2,0.1C11.2,26.6,10.9,26.3,10.8,26z M10.7,25.8c0,0,0,0.1,0,0.1&#xA;&#x9;&#x9;&#x9;&#x9;&#x9;C10.7,25.8,10.7,25.8,10.7,25.8z M10.6,24.4c0-0.1,0-0.2,0-0.2C10.6,24.3,10.6,24.3,10.6,24.4z M20.6,22.7&#xA;&#x9;&#x9;&#x9;&#x9;&#x9;c0-0.1-0.1-0.2-0.1-0.3c-0.1,0-0.1,0-0.2,0c0,0.1,0.1,0.2,0.1,0.3c0,0-0.1,0-0.1,0c0,0,0,0-0.1,0c0,0,0,0-0.1,0&#xA;&#x9;&#x9;&#x9;&#x9;&#x9;c-0.1,0-0.1,0-0.2,0c0,0,0,0-0.1,0c0,0,0,0-0.1,0l-0.1,0c0,0,0,0,0,0c0,0,0,0,0,0c0,0,0,0,0,0c0,0,0,0-0.1,0c0,0,0,0-0.1,0&#xA;&#x9;&#x9;&#x9;&#x9;&#x9;c0,0,0,0,0,0c0,0,0,0-0.1,0c0,0,0,0,0,0c0,0,0,0-0.1,0c0,0,0,0,0,0c0,0,0,0,0,0c0,0,0,0,0,0c0,0,0,0,0,0c0,0-0.1,0.1-0.1,0.1&#xA;&#x9;&#x9;&#x9;&#x9;&#x9;c0,0,0,0,0,0c0,0,0,0,0,0c0,0,0,0,0,0c0,0,0,0,0,0c0,0,0,0,0,0c0,0,0,0,0,0c0,0,0,0,0,0c0,0,0,0,0,0c0,0,0,0,0,0c0,0,0,0,0,0&#xA;&#x9;&#x9;&#x9;&#x9;&#x9;c0,0,0,0,0,0h0c0,0,0.1,0,0.1,0c0,0,0,0,0,0c0,0,0,0,0.1,0c0,0,0,0,0.1,0h0c0,0,0,0,0,0c0,0,0,0,0,0c0,0,0,0,0,0c0,0,0,0,0,0&#xA;&#x9;&#x9;&#x9;&#x9;&#x9;c0,0,0,0,0,0c0,0,0,0,0.1,0c0,0,0,0,0,0c0,0,0,0,0,0c0,0,0,0,0,0c0,0,0,0,0.1,0c0,0,0,0,0,0c0,0,0,0,0,0&#xA;&#x9;&#x9;&#x9;&#x9;&#x9;c0.2-0.1,0.3-0.2,0.6-0.2C20.4,23,20.5,22.8,20.6,22.7C20.6,22.7,20.6,22.7,20.6,22.7z M13.6,26.3&#xA;&#x9;&#x9;&#x9;&#x9;&#x9;C13.6,26.3,13.6,26.3,13.6,26.3c0,0-0.1,0.1-0.1,0.1c0,0-0.1,0.1-0.1,0.1c0,0,0,0,0,0c0,0,0,0,0,0c0,0,0,0,0.1,0c0,0,0,0,0,0&#xA;&#x9;&#x9;&#x9;&#x9;&#x9;C13.6,26.4,13.6,26.3,13.6,26.3C13.6,26.3,13.7,26.3,13.6,26.3c0,0,0.1-0.1,0.1-0.1c0,0,0,0,0.1,0c0,0,0,0,0,0c0,0,0,0,0,0&#xA;&#x9;&#x9;&#x9;&#x9;&#x9;c0,0,0,0,0,0C13.8,26.2,13.7,26.2,13.6,26.3z M20.6,22.7c0-0.1-0.1-0.2-0.1-0.3c-0.1,0-0.1,0-0.2,0c0,0.1,0.1,0.2,0.1,0.3&#xA;&#x9;&#x9;&#x9;&#x9;&#x9;c0,0-0.1,0-0.1,0c0,0,0,0-0.1,0c0,0,0,0-0.1,0c-0.1,0-0.1,0-0.2,0c0,0,0,0-0.1,0c0,0,0,0-0.1,0l-0.1,0c0,0,0,0,0,0c0,0,0,0,0,0&#xA;&#x9;&#x9;&#x9;&#x9;&#x9;c0,0,0,0,0,0c0,0,0,0-0.1,0c0,0,0,0-0.1,0c0,0,0,0,0,0c0,0,0,0-0.1,0c0,0,0,0,0,0c0,0,0,0-0.1,0c0,0,0,0,0,0c0,0,0,0,0,0&#xA;&#x9;&#x9;&#x9;&#x9;&#x9;c0,0,0,0,0,0c0,0,0,0,0,0c0,0-0.1,0.1-0.1,0.1c0,0,0,0,0,0c0,0,0,0,0,0c0,0,0,0,0,0c0,0,0,0,0,0c0,0,0,0,0,0c0,0,0,0,0,0&#xA;&#x9;&#x9;&#x9;&#x9;&#x9;c0,0,0,0,0,0c0,0,0,0,0,0c0,0,0,0,0,0c0,0,0,0,0,0c0,0,0,0,0,0h0c0,0,0.1,0,0.1,0c0,0,0,0,0,0c0,0,0,0,0.1,0&#xA;&#x9;&#x9;&#x9;&#x9;&#x9;c0,0,0.2-0.1,0.2-0.1c0.1,0,0.1,0,0.2,0c0,0,0,0,0,0c0,0,0,0,0,0c0.2-0.1,0.3-0.2,0.6-0.2C20.4,23,20.5,22.8,20.6,22.7&#xA;&#x9;&#x9;&#x9;&#x9;&#x9;C20.6,22.7,20.6,22.7,20.6,22.7z M13.6,26.3C13.6,26.3,13.6,26.3,13.6,26.3c0,0-0.1,0.1-0.1,0.1c0,0-0.1,0.1-0.1,0.1&#xA;&#x9;&#x9;&#x9;&#x9;&#x9;c0,0,0,0,0,0c0,0,0,0,0,0c0,0,0,0,0.1,0c0,0,0,0,0,0C13.6,26.4,13.6,26.3,13.6,26.3C13.6,26.3,13.7,26.3,13.6,26.3&#xA;&#x9;&#x9;&#x9;&#x9;&#x9;c0,0,0.1-0.1,0.1-0.1c0,0,0,0,0.1,0c0,0,0,0,0,0c0,0,0,0,0,0c0,0,0.1,0,0.1-0.1c0,0-0.1,0-0.1,0.1&#xA;&#x9;&#x9;&#x9;&#x9;&#x9;C13.8,26.2,13.7,26.2,13.6,26.3z M20.7,22.8C20.7,22.8,20.7,22.8,20.7,22.8C20.6,22.7,20.6,22.7,20.7,22.8&#xA;&#x9;&#x9;&#x9;&#x9;&#x9;c-0.1-0.2-0.1-0.3-0.1-0.4c-0.1-0.2-0.1-0.4-0.1-0.5c0-0.1,0-0.2,0-0.2c0-0.1,0-0.1-0.1-0.1c0,0-1.2-0.4-3.1-0.2&#xA;&#x9;&#x9;&#x9;&#x9;&#x9;c-0.6,0.1-1.2,0.2-1.8,0.3c-0.4,0.1-1.1,0.2-2,0.4c-0.3,0.1-0.6,0.1-1,0.2c-0.2,0-0.4,0.1-0.5,0.1c0,0,0,0-0.1,0&#xA;&#x9;&#x9;&#x9;&#x9;&#x9;c-0.1,0-0.1,0-0.2,0c0,0,0,0,0,0c0,0,0,0,0,0c0,0,0,0,0,0c0,0,0,0,0,0c0,0,0,0,0,0c0,0,0,0,0,0c0,0,0,0,0,0c0,0,0,0,0,0&#xA;&#x9;&#x9;&#x9;&#x9;&#x9;c0,0,0,0,0,0c-0.1,0.1-0.2,0.2-0.4,0.3c0,0,0,0,0,0c0,0,0,0-0.1,0.1c0,0,0,0,0,0c0,0,0,0,0,0c0,0,0,0,0,0c0,0,0,0,0,0&#xA;&#x9;&#x9;&#x9;&#x9;&#x9;c0,0,0,0.1-0.1,0.1c-0.3,0.4-0.5,0.9-0.5,1.4c0,0.1,0,0.1,0,0.2c0,0,0,0.1,0,0.1c0,0,0,0.1,0,0.1c0,0,0,0.1,0,0.1&#xA;&#x9;&#x9;&#x9;&#x9;&#x9;c0,0,0,0.1,0,0.1c0,0,0,0,0,0.1c0,0,0,0,0,0.1c0,0,0,0,0,0.1c0.1,0.8,0.6,1.3,1,1.6c0,0,0.1,0,0.1,0.1c0.2,0.1,0.4,0.2,0.6,0.2&#xA;&#x9;&#x9;&#x9;&#x9;&#x9;c0,0,0,0,0,0c0,0,0,0,0,0c0.1,0,0.1,0,0.2-0.1c0.1,0,0.2-0.1,0.2-0.1c0.1,0,0.1,0,0.2-0.1c0,0,0.1,0,0.1-0.1&#xA;&#x9;&#x9;&#x9;&#x9;&#x9;c0.1,0,0.2-0.1,0.2-0.1h0c0,0,0,0,0,0c0.1-0.1,0.2-0.1,0.3-0.2c0,0,0.1,0,0.1-0.1c0,0,0.1,0,0.1-0.1c0,0,0.1,0,0.1-0.1&#xA;&#x9;&#x9;&#x9;&#x9;&#x9;c0,0,0.1,0,0.1-0.1c0,0,0,0,0,0c0,0,0,0,0,0c0,0,0.1,0,0.1-0.1c0,0,0.1,0,0.1-0.1c0.1,0,0.1-0.1,0.2-0.1c0,0,0.1-0.1,0.1-0.1&#xA;&#x9;&#x9;&#x9;&#x9;&#x9;c0.1-0.1,0.2-0.1,0.2-0.2c0,0,0.1,0,0.1-0.1c0,0,0,0,0,0c0,0,0.1,0,0.1-0.1c0.2-0.1,0.3-0.3,0.5-0.4c0.6-0.5,1.2-1,1.8-1.3&#xA;&#x9;&#x9;&#x9;&#x9;&#x9;c0.2-0.1,0.4-0.1,0.6-0.2c0.1,0,0.1,0,0.2,0c0,0,0.1,0,0.1,0c0,0,0.1,0,0.1,0c0.4-0.1,0.8-0.2,1.1-0.3c0,0,0.1,0,0.1,0&#xA;&#x9;&#x9;&#x9;&#x9;&#x9;c0,0,0,0,0,0c0.1,0,0.1,0,0.2,0c0,0,0,0,0,0h0c0,0,0,0,0,0c0.1,0,0.1-0.1,0.1-0.1c0,0,0,0,0,0c0,0,0,0,0,0c0,0,0,0,0,0h0&#xA;&#x9;&#x9;&#x9;&#x9;&#x9;c0,0,0,0,0,0c0,0,0,0,0,0c0,0,0,0,0,0c0,0,0,0,0,0c0,0,0,0,0,0c0,0,0,0,0.1,0c0,0,0,0,0,0c0,0,0,0,0,0c0,0,0,0,0,0&#xA;&#x9;&#x9;&#x9;&#x9;&#x9;c0,0,0,0,0.1,0c0,0,0,0,0,0c0,0,0,0,0,0c0,0,0,0,0,0c0,0,0.1,0,0.1,0c0,0,0,0,0,0c0.1,0,0.1,0,0.1,0c0.1,0,0.1,0,0.2,0&#xA;&#x9;&#x9;&#x9;&#x9;&#x9;c0,0,0.1,0,0.1,0c0,0,0.1,0,0.1,0c0,0,0.1,0,0.1,0c0,0,0,0,0,0c0,0,0,0,0.1,0c0,0,0,0,0,0c0,0,0.1,0,0.1-0.1&#xA;&#x9;&#x9;&#x9;&#x9;&#x9;C20.7,22.9,20.7,22.8,20.7,22.8z M19.7,22.9C19.7,22.9,19.7,22.9,19.7,22.9c-0.1,0-0.1,0-0.1,0c0,0,0,0,0,0c0,0,0,0-0.1,0&#xA;&#x9;&#x9;&#x9;&#x9;&#x9;c0,0,0,0,0,0c0,0,0,0-0.1,0c0,0,0,0,0,0c0,0,0,0,0,0c0,0,0,0,0,0c0,0,0,0,0,0c0,0-0.1,0.1-0.1,0.1c0,0,0,0,0,0c0,0,0,0,0,0&#xA;&#x9;&#x9;&#x9;&#x9;&#x9;c0,0,0,0,0,0c0,0,0,0,0,0c0,0,0,0,0,0c0,0,0,0,0,0c0,0,0,0,0,0c0,0,0,0,0,0c0,0,0,0,0,0c0,0,0,0,0,0c0,0,0,0,0,0c0,0,0,0,0,0&#xA;&#x9;&#x9;&#x9;&#x9;&#x9;c0,0-0.1,0-0.1,0c0,0-0.1,0-0.1,0c0,0-0.1,0-0.1,0c-0.2,0-0.4,0.1-0.6,0.1c-0.1,0-0.1,0-0.2,0c-0.3,0.1-0.6,0.2-0.9,0.3&#xA;&#x9;&#x9;&#x9;&#x9;&#x9;c0,0-0.1,0-0.1,0c-0.1,0-0.2,0.1-0.3,0.1c-0.7,0.3-1.3,0.8-1.9,1.3c0,0-0.1,0.1-0.1,0.1c0,0-0.1,0.1-0.1,0.1&#xA;&#x9;&#x9;&#x9;&#x9;&#x9;c-0.1,0.1-0.1,0.1-0.2,0.2c0,0-0.1,0-0.1,0.1c0,0-0.1,0-0.1,0.1c-0.1,0-0.1,0.1-0.2,0.1c-0.1,0.1-0.1,0.1-0.2,0.2&#xA;&#x9;&#x9;&#x9;&#x9;&#x9;c0,0-0.1,0-0.1,0.1c-0.1,0.1-0.2,0.1-0.3,0.2c0,0,0,0,0,0c0,0-0.1,0.1-0.1,0.1c0,0-0.1,0.1-0.1,0.1c0,0,0,0,0,0c0,0,0,0-0.1,0&#xA;&#x9;&#x9;&#x9;&#x9;&#x9;c0,0,0,0-0.1,0c0,0-0.1,0.1-0.1,0.1c-0.3,0.2-0.6,0.3-1,0.4c0,0-0.1,0-0.1,0c0,0,0,0,0,0c0,0,0,0-0.1,0c0,0,0,0,0,0c0,0,0,0,0,0&#xA;&#x9;&#x9;&#x9;&#x9;&#x9;c0,0-0.1,0-0.1,0c0,0,0,0-0.1,0c0,0,0,0,0,0c0,0,0,0,0,0c0,0,0,0,0,0c0,0,0,0,0,0c0,0,0,0-0.1,0c0,0,0,0-0.1,0&#xA;&#x9;&#x9;&#x9;&#x9;&#x9;c-0.3-0.2-0.5-0.5-0.7-0.8c0,0,0-0.1,0-0.1c0,0,0-0.1,0-0.1c0,0,0,0,0-0.1c0,0,0,0,0,0c0,0,0,0,0-0.1c0,0,0,0,0-0.1&#xA;&#x9;&#x9;&#x9;&#x9;&#x9;c0,0,0,0,0-0.1c0,0,0,0,0-0.1c0,0,0-0.1,0-0.1c0,0,0,0,0,0c0,0,0,0,0-0.1c0-0.1,0-0.1,0-0.2c0,0,0,0,0-0.1c0,0,0,0,0,0&#xA;&#x9;&#x9;&#x9;&#x9;&#x9;c0,0,0,0,0,0c0,0,0,0,0,0v-0.1c0,0,0,0,0,0c0,0,0,0,0,0c0,0,0,0,0,0c0,0,0-0.1,0-0.1c0,0,0,0,0,0c0,0,0,0,0,0v0c0,0,0,0,0,0&#xA;&#x9;&#x9;&#x9;&#x9;&#x9;c0,0,0-0.1,0-0.1c0-0.1,0-0.2,0-0.2c0,0,0,0,0,0c0,0,0,0,0-0.1c0,0,0-0.1,0-0.1c0,0,0-0.1,0-0.1c0,0,0-0.1,0-0.1c0,0,0,0,0-0.1&#xA;&#x9;&#x9;&#x9;&#x9;&#x9;c0,0,0-0.1,0.1-0.1c0,0,0,0,0-0.1c0,0,0-0.1,0.1-0.1c0,0,0,0,0,0c0,0,0-0.1,0.1-0.1c0,0,0,0,0,0c0-0.1,0.1-0.1,0.1-0.2&#xA;&#x9;&#x9;&#x9;&#x9;&#x9;c0,0,0.1,0,0.1-0.1c0,0,0.1-0.1,0.1-0.1c0,0,0.1-0.1,0.1-0.1c0,0,0.1-0.1,0.2-0.1c0,0,0.1,0,0.1-0.1c0.6-0.1,1.1-0.2,1.6-0.3&#xA;&#x9;&#x9;&#x9;&#x9;&#x9;c0.3-0.1,0.5-0.1,0.7-0.1c0.4-0.1,0.8-0.2,1.1-0.2c0,0,0,0,0,0c0.1,0,0.2-0.1,0.3-0.1c0.5-0.1,0.9-0.2,1.4-0.3&#xA;&#x9;&#x9;&#x9;&#x9;&#x9;c0.1,0,0.3,0,0.4,0c0.3,0,0.5,0,0.7,0c0,0,0,0,0,0c0.6,0,1,0,1.4,0.1c0.1,0,0.2,0,0.3,0.1c0.2,0,0.4,0.1,0.4,0.1&#xA;&#x9;&#x9;&#x9;&#x9;&#x9;c0,0.1,0,0.4,0.1,0.7c0,0.1,0.1,0.2,0.1,0.3c0,0-0.1,0-0.1,0c0,0,0,0-0.1,0c0,0,0,0-0.1,0c-0.1,0-0.1,0-0.2,0c0,0,0,0-0.1,0&#xA;&#x9;&#x9;&#x9;&#x9;&#x9;c0,0,0,0-0.1,0L19.7,22.9C19.8,22.9,19.8,22.9,19.7,22.9C19.8,22.9,19.8,22.9,19.7,22.9C19.8,22.9,19.8,22.9,19.7,22.9z&#xA;&#x9;&#x9;&#x9;&#x9;&#x9; M10.7,25.8c0,0,0,0.1,0,0.1C10.7,25.8,10.7,25.8,10.7,25.8z M13.9,26.1c-0.1,0.1-0.2,0.1-0.3,0.2c0,0,0,0,0,0&#xA;&#x9;&#x9;&#x9;&#x9;&#x9;c0,0-0.1,0.1-0.1,0.1c0,0-0.1,0.1-0.1,0.1c0,0,0,0,0,0c0,0,0,0,0,0c0,0,0,0,0.1,0c0,0,0,0,0,0c0,0,0.1-0.1,0.1-0.1c0,0,0,0,0,0&#xA;&#x9;&#x9;&#x9;&#x9;&#x9;c0,0,0.1,0,0.1-0.1C13.8,26.2,13.8,26.2,13.9,26.1C13.8,26.2,13.8,26.2,13.9,26.1C13.9,26.1,13.9,26.1,13.9,26.1&#xA;&#x9;&#x9;&#x9;&#x9;&#x9;C13.9,26.1,13.9,26.1,13.9,26.1C13.9,26.1,13.9,26.1,13.9,26.1z M20.6,22.7c0-0.1-0.1-0.2-0.1-0.3c-0.1,0-0.1,0-0.2,0&#xA;&#x9;&#x9;&#x9;&#x9;&#x9;c0,0.1,0.1,0.2,0.1,0.3c0,0-0.1,0-0.1,0c0,0,0,0-0.1,0c0,0,0,0-0.1,0c-0.1,0-0.1,0-0.2,0c0,0,0,0-0.1,0c0,0,0,0-0.1,0l-0.1,0&#xA;&#x9;&#x9;&#x9;&#x9;&#x9;c0,0,0,0,0,0c0,0,0,0,0,0c0,0,0,0,0,0c0,0,0,0-0.1,0c0,0,0,0-0.1,0c0,0,0,0,0,0c0,0,0,0-0.1,0c0,0,0,0,0,0c0,0,0,0-0.1,0&#xA;&#x9;&#x9;&#x9;&#x9;&#x9;c0,0,0,0,0,0c0,0,0,0,0,0c0,0,0,0,0,0c0,0,0,0,0,0c0,0-0.1,0.1-0.1,0.1c0,0,0,0,0,0c0,0,0,0,0,0c0,0,0,0,0,0c0,0,0,0,0,0&#xA;&#x9;&#x9;&#x9;&#x9;&#x9;c0,0,0,0,0,0c0,0,0,0,0,0c0,0,0,0,0,0c0,0,0,0,0,0c0,0,0,0,0,0c0,0,0,0,0,0c0,0,0,0,0,0h0c0,0,0.1,0,0.1,0c0,0,0,0,0,0&#xA;&#x9;&#x9;&#x9;&#x9;&#x9;c0,0,0,0,0.1,0c0,0,0.2-0.1,0.2-0.1c0.1,0,0.1,0,0.2,0c0,0,0,0,0,0c0,0,0,0,0,0c0.2-0.1,0.3-0.2,0.6-0.2&#xA;&#x9;&#x9;&#x9;&#x9;&#x9;C20.4,23,20.5,22.8,20.6,22.7C20.6,22.7,20.6,22.7,20.6,22.7z M13.6,26.3C13.6,26.3,13.6,26.3,13.6,26.3c0,0-0.1,0.1-0.1,0.1&#xA;&#x9;&#x9;&#x9;&#x9;&#x9;c0,0-0.1,0.1-0.1,0.1c0,0,0,0,0,0c0,0,0,0,0,0c0,0,0,0,0.1,0c0,0,0,0,0,0C13.6,26.4,13.6,26.3,13.6,26.3&#xA;&#x9;&#x9;&#x9;&#x9;&#x9;C13.6,26.3,13.7,26.3,13.6,26.3c0,0,0.1-0.1,0.1-0.1c0,0,0,0,0.1,0c0,0,0,0,0,0c0,0,0,0,0,0c0,0,0,0,0,0&#xA;&#x9;&#x9;&#x9;&#x9;&#x9;C13.8,26.2,13.7,26.2,13.6,26.3z M19.1,23.3L19.1,23.3C19.1,23.3,19.1,23.3,19.1,23.3C19.1,23.3,19.1,23.3,19.1,23.3z"></path>
&#x9;&#x9;&#x9;</g>
&#x9;&#x9;</g>
&#x9;&#x9;<g>
&#x9;&#x9;&#x9;<g>
&#x9;&#x9;&#x9;&#x9;<path class="st2" d="M12,14.4c0,0.3,0.3,0.9,0.5,1.1c-0.2-0.1-0.3-0.2-0.4-0.2c0,0.2,0.1,0.7,0.2,1.3C12.1,15.9,12,15.3,12,15&#xA;&#x9;&#x9;&#x9;&#x9;&#x9;C11.9,14.8,12,14.4,12,14.4z"></path>
&#x9;&#x9;&#x9;</g>
&#x9;&#x9;</g>
&#x9;&#x9;<g>
&#x9;&#x9;&#x9;<g>
&#x9;&#x9;&#x9;&#x9;<path class="st0" d="M18.7,12.8c0,0.3-0.3,0.9-0.5,1.1c0.2-0.1,0.3-0.2,0.4-0.2c0,0.2-0.1,0.7-0.2,1.3c0.3-0.7,0.5-1.3,0.5-1.5&#xA;&#x9;&#x9;&#x9;&#x9;&#x9;C18.8,13.2,18.7,12.8,18.7,12.8z"></path>
&#x9;&#x9;&#x9;</g>
&#x9;&#x9;</g>
&#x9;&#x9;<g>
&#x9;&#x9;&#x9;<g>
&#x9;&#x9;&#x9;&#x9;<g>
&#x9;&#x9;&#x9;&#x9;&#x9;<path class="st1" d="M14.1,17.6c0-0.1-0.1-0.1-0.1-0.2c-0.3-0.4-0.8-0.4-1,0.1c0,0,0,0.1-0.1,0.2c0,0,0,0,0,0c0,0,0,0,0,0&#xA;&#x9;&#x9;&#x9;&#x9;&#x9;&#x9;c0,0,0,0,0,0c-0.1,0.1-0.2,0-0.2-0.1c0-0.1,0.1-0.1,0.1-0.2c0-0.1,0.1-0.2,0.1-0.3c0.1-0.2,0.2-0.4,0.3-0.5c0,0,0,0,0,0&#xA;&#x9;&#x9;&#x9;&#x9;&#x9;&#x9;c0.1-0.1,0.3-0.2,0.4-0.1c0.2,0.1,0.2,0.3,0.3,0.5c0,0,0,0.1,0,0.1C14.1,17.2,14.1,17.4,14.1,17.6z"></path>
&#x9;&#x9;&#x9;&#x9;</g>
&#x9;&#x9;&#x9;</g>
&#x9;&#x9;</g>
&#x9;&#x9;<g>
&#x9;&#x9;&#x9;<g>
&#x9;&#x9;&#x9;&#x9;<g>
&#x9;&#x9;&#x9;&#x9;&#x9;<path class="st0" d="M17.6,17.4c0,0-0.1,0.1-0.1,0.1c0,0,0,0,0,0s0,0,0,0c0,0,0,0,0,0c0,0,0,0,0-0.1c0-0.1-0.1-0.2-0.2-0.3&#xA;&#x9;&#x9;&#x9;&#x9;&#x9;&#x9;c-0.4-0.4-1.1-0.5-1.3,0.1c0,0,0,0.1-0.1,0.1c0-0.2,0.1-0.4,0.1-0.5c0.1-0.2,0.1-0.5,0.2-0.7c0.1-0.1,0.1-0.2,0.3-0.2&#xA;&#x9;&#x9;&#x9;&#x9;&#x9;&#x9;c0.1,0,0.2,0,0.3,0.1c0.2,0.1,0.3,0.4,0.5,0.6c0.1,0.1,0.1,0.2,0.2,0.4c0,0.1,0.1,0.1,0.1,0.2c0,0,0,0,0,0&#xA;&#x9;&#x9;&#x9;&#x9;&#x9;&#x9;C17.5,17.2,17.6,17.3,17.6,17.4C17.6,17.3,17.6,17.3,17.6,17.4z"></path>
&#x9;&#x9;&#x9;&#x9;</g>
&#x9;&#x9;&#x9;</g>
&#x9;&#x9;</g>
&#x9;&#x9;<g>
&#x9;&#x9;&#x9;<g>
&#x9;&#x9;&#x9;&#x9;<path class="st2" d="M15,20.1c-0.1-0.2-0.1-0.5-0.2-0.7c-0.1-0.2-0.1-0.5-0.2-0.7c0-0.2-0.1-0.5-0.1-0.7c0-0.2-0.1-0.5-0.1-0.7&#xA;&#x9;&#x9;&#x9;&#x9;&#x9;c0-0.1-0.1-0.2-0.1-0.3c0-0.1,0-0.1-0.1-0.1c0,0,0,0,0,0c0,0,0-0.1,0,0l0,0l0,0l0,0l0,0l0,0l0-0.1c-0.1-0.2-0.3-0.4-0.4-0.5&#xA;&#x9;&#x9;&#x9;&#x9;&#x9;c-0.1-0.1-0.2-0.2-0.2-0.2c-0.1-0.1-0.2-0.2-0.3-0.2c-0.2-0.2-0.4-0.3-0.5-0.5l0,0c0.2,0.1,0.4,0.2,0.6,0.3l0.1,0l0.1,0l0.1,0.1&#xA;&#x9;&#x9;&#x9;&#x9;&#x9;c0.1,0.1,0.2,0.1,0.3,0.2c0.2,0.2,0.3,0.4,0.5,0.6l0,0.1l0,0l0,0l0,0l0,0l0,0c0,0,0,0,0,0c0,0,0,0,0,0c0,0.1,0.1,0.1,0.1,0.2&#xA;&#x9;&#x9;&#x9;&#x9;&#x9;c0,0.1,0.1,0.2,0.1,0.4c0,0.2,0.1,0.5,0.1,0.7c0,0.2,0.1,0.5,0.1,0.7C14.8,19.2,14.9,19.7,15,20.1L15,20.1z"></path>
&#x9;&#x9;&#x9;</g>
&#x9;&#x9;</g>
&#x9;&#x9;<g>
&#x9;&#x9;&#x9;<g>
&#x9;&#x9;&#x9;&#x9;<path class="st2" d="M22,25.5C22,25.5,22,25.5,22,25.5C22,25.5,22,25.5,22,25.5C22,25.5,22,25.4,22,25.5c0-0.1,0-0.1,0-0.2&#xA;&#x9;&#x9;&#x9;&#x9;&#x9;c0,0,0-0.1,0-0.1c0-0.1,0-0.1,0-0.2c0,0,0-0.1,0-0.1c0,0,0-0.1,0-0.1c0-0.1,0-0.2-0.1-0.2c0-0.1-0.1-0.2-0.1-0.2&#xA;&#x9;&#x9;&#x9;&#x9;&#x9;c0,0,0-0.1-0.1-0.1c0,0,0,0,0,0c0,0,0,0,0-0.1c0,0,0,0,0,0c0,0,0,0,0-0.1c0,0-0.1-0.1-0.1-0.1c0,0-0.1-0.1-0.1-0.1&#xA;&#x9;&#x9;&#x9;&#x9;&#x9;c-0.1-0.1-0.1-0.1-0.2-0.2c-0.1-0.1-0.1-0.1-0.2-0.2c0,0-0.1,0-0.1-0.1c0,0,0,0-0.1,0c0,0,0,0,0,0c-0.1,0-0.1-0.1-0.2-0.1&#xA;&#x9;&#x9;&#x9;&#x9;&#x9;c-0.1,0-0.1,0-0.1,0c0,0,0,0,0,0c0,0,0,0,0,0c0,0-0.1,0-0.1,0c0,0,0,0,0,0c-0.1,0-0.1-0.1-0.1-0.1c0-0.1,0.1-0.1,0.1-0.1&#xA;&#x9;&#x9;&#x9;&#x9;&#x9;c0,0,0,0,0,0c0,0,0,0,0,0c0,0,0.1,0,0.1,0c0,0,0.1,0,0.2,0.1c0.1,0,0.1,0.1,0.2,0.1c0,0,0,0,0.1,0c0,0,0,0,0.1,0&#xA;&#x9;&#x9;&#x9;&#x9;&#x9;c0,0,0.1,0,0.1,0.1c0,0,0,0,0.1,0.1l0,0c0,0,0.1,0.1,0.1,0.1c0,0,0,0,0,0l0,0c0.1,0.1,0.1,0.1,0.2,0.2c0,0,0.1,0.1,0.1,0.1&#xA;&#x9;&#x9;&#x9;&#x9;&#x9;c0,0,0,0,0,0.1c0,0,0,0,0,0.1c0,0,0,0.1,0.1,0.1c0,0,0,0.1,0.1,0.1c0,0.1,0.1,0.2,0.1,0.3c0,0.1,0,0.2,0.1,0.2c0,0,0,0.1,0,0.1&#xA;&#x9;&#x9;&#x9;&#x9;&#x9;c0,0,0,0.1,0,0.1c0,0.1,0,0.1,0,0.2c0,0,0,0.1,0,0.1C22,25.3,22,25.4,22,25.5C22,25.4,22,25.5,22,25.5z"></path>
&#x9;&#x9;&#x9;</g>
&#x9;&#x9;</g>
&#x9;&#x9;<g>
&#x9;&#x9;&#x9;<g>
&#x9;&#x9;&#x9;&#x9;<path class="st1" d="M12.9,17.7C12.9,17.7,12.9,17.7,12.9,17.7C12.9,17.7,12.9,17.7,12.9,17.7C12.9,17.7,12.9,17.7,12.9,17.7&#xA;&#x9;&#x9;&#x9;&#x9;&#x9;C12.8,17.7,12.8,17.7,12.9,17.7c-0.1,0.1-0.2,0-0.2,0c-0.6-0.7-1.1-2.3-1.1-2.8c0,0,0,0,0,0c0,0,0-0.1,0.1-0.1c0,0,0,0,0.1,0&#xA;&#x9;&#x9;&#x9;&#x9;&#x9;c0,0,0,0,0,0c0.1,0,0.1,0.1,0.1,0.1c0,0,0,0.1,0,0.1c0,0.5,0.4,1.7,0.9,2.3c0,0,0.1,0.1,0.1,0.1C12.9,17.6,12.9,17.6,12.9,17.7z&#xA;&#x9;&#x9;&#x9;&#x9;&#x9;"></path>
&#x9;&#x9;&#x9;</g>
&#x9;&#x9;</g>
&#x9;&#x9;<g>
&#x9;&#x9;&#x9;<g>
&#x9;&#x9;&#x9;&#x9;<path class="st0" d="M19.6,13.9c0,0.7-0.7,2.6-2,3.6c0,0,0,0-0.1,0c0,0,0,0-0.1,0c0,0,0,0,0,0c0,0,0,0,0,0c0,0,0,0,0,0&#xA;&#x9;&#x9;&#x9;&#x9;&#x9;c0-0.1,0-0.1,0-0.2c0,0,0.1,0,0.1-0.1c0.4-0.3,0.8-0.8,1.1-1.2c0.2-0.2,0.3-0.5,0.4-0.7c0.3-0.6,0.4-1.1,0.4-1.4&#xA;&#x9;&#x9;&#x9;&#x9;&#x9;c0-0.1,0-0.1,0.1-0.1c0,0,0,0,0,0C19.5,13.8,19.6,13.8,19.6,13.9C19.6,13.8,19.6,13.9,19.6,13.9z"></path>
&#x9;&#x9;&#x9;</g>
&#x9;&#x9;</g>
&#x9;&#x9;<g>
&#x9;&#x9;&#x9;<path class="st3" d="M18.4,27.6C18.4,27.6,18.4,27.6,18.4,27.6"></path>
&#x9;&#x9;</g>
&#x9;&#x9;<g>
&#x9;&#x9;&#x9;<line class="st3" x1="19.5" y1="27" x2="19.5" y2="27"></line>
&#x9;&#x9;</g>
&#x9;&#x9;<g>
&#x9;&#x9;&#x9;<polygon points="19.7,12 19.7,12 19.7,12 &#x9;&#x9;&#x9;"></polygon>
&#x9;&#x9;</g>
&#x9;&#x9;<g>
&#x9;&#x9;&#x9;<g>
&#x9;&#x9;&#x9;&#x9;<path class="st0" d="M21.3,8c-0.1,0.3-0.3,0.8-0.7,1.2c0,0,0,0,0,0c0,0,0,0-0.1,0.1l0,0c-0.2,0.3-1,1.4-1.6,1.9&#xA;&#x9;&#x9;&#x9;&#x9;&#x9;c1.3-1.5,1.5-2.5,1.5-2.5L19.9,9c1-1.4-0.6-3.6-0.6-3.7c0.6,0.5,1.1,1.2,1.2,1.8c0,0,0.2,0.1,0,0.8c0,0,0.2-0.2,0.2-0.6&#xA;&#x9;&#x9;&#x9;&#x9;&#x9;c0-0.1,0.1-0.1,0.1,0l0.3,0.4C21.3,7.8,21.3,7.9,21.3,8z"></path>
&#x9;&#x9;&#x9;</g>
&#x9;&#x9;&#x9;<g>
&#x9;&#x9;&#x9;&#x9;<path d="M20.2,10.3L19.7,12l0,0v0c0,0,0,0,0,0c0,0.1-0.1,0.2-0.1,0.2c-0.1,0.1-0.1,0.1-0.2,0.2c-0.5,0.3-1.8,1.1-3.5,1.8&#xA;&#x9;&#x9;&#x9;&#x9;&#x9;c-2.1,0.9-3.3,1.2-3.9,1c-0.6-0.2-0.2-0.6-0.2-0.6l-0.6-1.5c0,0-0.5-0.1-0.5-0.7c0-0.6-0.1-1.9,0.5-4.6c0-0.2,0.3-0.2,0.3-0.2&#xA;&#x9;&#x9;&#x9;&#x9;&#x9;s0.5-3.5,4.9-3.5c1,0,2.1,0.5,2.9,1.2c0.1,0.1,1.7,2.3,0.6,3.7l0.6-0.3c0,0-0.2,1-1.5,2.5c0,0,0,0,0,0c0,0,0,0,0,0&#xA;&#x9;&#x9;&#x9;&#x9;&#x9;c0.1,0,0.2-0.1,0.3-0.2c0,0,0,0,0,0c0.2-0.1,0.4-0.3,0.7-0.5c0,0,0,0,0.1,0C20.1,10.3,20.1,10.3,20.2,10.3&#xA;&#x9;&#x9;&#x9;&#x9;&#x9;C20.2,10.2,20.2,10.3,20.2,10.3z"></path>
&#x9;&#x9;&#x9;</g>
&#x9;&#x9;&#x9;<g>
&#x9;&#x9;&#x9;&#x9;<path class="st0" d="M18.4,8.6c-0.9,1.8-4.2,3.5-6.3,3.9c-0.5,0.1-1,0-1.5-0.1c0,0,0,0,0,0c0-0.6-0.1-1.9,0.5-4.6&#xA;&#x9;&#x9;&#x9;&#x9;&#x9;c0-0.2,0.3-0.2,0.3-0.2s3.6,0.1,4.9-0.1C17.8,7.3,19.3,6.8,18.4,8.6z"></path>
&#x9;&#x9;&#x9;</g>
&#x9;&#x9;&#x9;<g>
&#x9;&#x9;&#x9;&#x9;<path class="st4" d="M17.9,8.8c-0.8,1.7-3.9,3.3-5.8,3.6c-0.4,0.1-0.8,0-1.2-0.1c-0.1,0-0.2-0.1-0.2-0.2c0-0.6-0.1-1.8,0.4-4.1&#xA;&#x9;&#x9;&#x9;&#x9;&#x9;c0-0.2,0.2-0.2,0.2-0.2s3.3,0.1,4.5-0.1C17.3,7.6,18.7,7.1,17.9,8.8z"></path>
&#x9;&#x9;&#x9;</g>
&#x9;&#x9;&#x9;<g>
&#x9;&#x9;&#x9;&#x9;<path d="M17.9,8.8c-0.7,1.5-3.1,2.8-5,3.4c-0.4-0.9-0.2-2.2-0.1-2.3c0.1-0.1,0.4,0.6,0.4,0.6c-0.3-0.9,0-2.3,0.1-2.6&#xA;&#x9;&#x9;&#x9;&#x9;&#x9;c1,0,2.1,0,2.7-0.1C17.3,7.6,18.7,7.1,17.9,8.8z"></path>
&#x9;&#x9;&#x9;</g>
&#x9;&#x9;&#x9;<g>
&#x9;&#x9;&#x9;&#x9;<path class="st1" d="M11.8,14.7C11.9,14.7,11.9,14.8,11.8,14.7c0.1,0.1,0.1,0.1,0.1,0.1c0,0,0,0,0,0c0.1,0,0.1,0,0.2,0&#xA;&#x9;&#x9;&#x9;&#x9;&#x9;c0,0,0.1,0,0.1,0l0,0c0,0,0,0,0,0c0.1,0,0.1,0,0.2,0c-0.1,0-0.1,0-0.2,0.1c0,0-0.1,0-0.1,0c0,0,0,0-0.1,0l-0.1,0&#xA;&#x9;&#x9;&#x9;&#x9;&#x9;c-0.1,0-0.1,0-0.2,0c0,0,0,0,0,0c0,0,0,0,0,0C11.8,14.8,11.8,14.7,11.8,14.7z"></path>
&#x9;&#x9;&#x9;</g>
&#x9;&#x9;&#x9;<g>
&#x9;&#x9;&#x9;&#x9;<path class="st1" d="M17.7,4.4c-0.7,0-2.6,0.1-3.9,1.6V5.6c0,0-1.2,0.9-1.7,1.5c-0.1,0.1-0.2,0.3-0.2,0.4c-0.1,0-0.1,0-0.2,0&#xA;&#x9;&#x9;&#x9;&#x9;&#x9;c0-0.1,0-0.2,0.1-0.4c0.3-0.7,1.1-1.6,1.3-1.8l0,0.3c0,0,0.5-0.9,2.3-1.5c0,0,0,0,0,0c0.3,0,0.7-0.1,1.1-0.1&#xA;&#x9;&#x9;&#x9;&#x9;&#x9;C16.8,4.1,17.2,4.2,17.7,4.4z"></path>
&#x9;&#x9;&#x9;</g>
&#x9;&#x9;&#x9;<g>
&#x9;&#x9;&#x9;&#x9;<polygon class="st1" points="17,5.1 16.5,5.8 13.9,7.2 14.5,6.2 14.2,6.9 16.4,5.7 16.9,5 &#x9;&#x9;&#x9;&#x9;"></polygon>
&#x9;&#x9;&#x9;</g>
&#x9;&#x9;&#x9;<g>
&#x9;&#x9;&#x9;&#x9;<path class="st0" d="M16.2,10.9l-0.4,2.9c0,0.1-0.1,0.2-0.2,0.2l0,0v-2.7C15.8,11.1,16,11,16.2,10.9z"></path>
&#x9;&#x9;&#x9;</g>
&#x9;&#x9;&#x9;<g>
&#x9;&#x9;&#x9;&#x9;<path class="st0" d="M15.3,11.3v2.6c0,0.1,0,0.2-0.1,0.2l0,0L15,11.5C15.1,11.5,15.2,11.4,15.3,11.3z"></path>
&#x9;&#x9;&#x9;</g>
&#x9;&#x9;&#x9;<g>
&#x9;&#x9;&#x9;&#x9;<polygon class="st1" points="11.9,13.4 11.8,13.1 12.2,12.8 14,12.1 12.3,12.8 12.1,13.1 12.1,13.2 12.4,13.1 11.9,13.4 &#x9;&#x9;&#x9;&#x9;"></polygon>
&#x9;&#x9;&#x9;</g>
&#x9;&#x9;&#x9;<g>
&#x9;&#x9;&#x9;&#x9;<polygon class="st1" points="11,12.6 11.1,12.9 11.7,12.9 12.1,12.7 11.7,12.9 11.3,12.8 11.2,12.6 &#x9;&#x9;&#x9;&#x9;"></polygon>
&#x9;&#x9;&#x9;</g>
&#x9;&#x9;&#x9;<g>
&#x9;&#x9;&#x9;&#x9;<path class="st0" d="M16,13.7l0.9-0.5l0.9-0.5l0.9-0.5l0.2-0.1c0,0,0.1,0,0.1-0.1c0,0,0-0.1,0.1-0.1c0-0.1,0.1-0.2,0.1-0.2&#xA;&#x9;&#x9;&#x9;&#x9;&#x9;c0-0.1,0.1-0.2,0.1-0.2l0,0c0,0.1,0,0.2-0.1,0.3c0,0.1,0,0.2-0.1,0.3l0,0.1c0,0,0,0.1,0,0.1c0,0.1-0.1,0.1-0.1,0.1l-0.2,0.1&#xA;&#x9;&#x9;&#x9;&#x9;&#x9;l-1,0.5l-1,0.5L16,13.7L16,13.7z"></path>
&#x9;&#x9;&#x9;</g>
&#x9;&#x9;&#x9;<g>
&#x9;&#x9;&#x9;&#x9;<path class="st0" d="M18.7,8.6v0.9c0,0.1-0.1,0.2-0.1,0.2l-1.3,0.7c0,0-0.1,0,0-0.1C17.7,10.1,18.4,9.4,18.7,8.6&#xA;&#x9;&#x9;&#x9;&#x9;&#x9;C18.7,8.5,18.7,8.5,18.7,8.6z"></path>
&#x9;&#x9;&#x9;</g>
&#x9;&#x9;&#x9;<g>
&#x9;&#x9;&#x9;&#x9;<path d="M11.4,8.3C11.3,8.7,11,9.7,11,10.7c0,0,0.1,0,0.1,0l0.2-0.7c0.1-0.2,0.1-0.4,0.1-0.6C11.4,9.1,11.4,8.7,11.4,8.3&#xA;&#x9;&#x9;&#x9;&#x9;&#x9;C11.4,8.3,11.4,8.3,11.4,8.3z"></path>
&#x9;&#x9;&#x9;</g>
&#x9;&#x9;&#x9;<g>
&#x9;&#x9;&#x9;&#x9;<path d="M11,11.1c0,0-0.1,0.7,0.1,1c0,0,0.1,0,0.1,0L11,11.1z"></path>
&#x9;&#x9;&#x9;</g>
&#x9;&#x9;</g>
&#x9;&#x9;<g>
&#x9;&#x9;&#x9;<polygon class="st1" points="19.2,5.3 19.2,5.3 19.2,5.3 19.3,5.3 19.2,5.3 19.3,5.3 19.2,5.3 &#x9;&#x9;&#x9;"></polygon>
&#x9;&#x9;</g>
&#x9;&#x9;<g>
&#x9;&#x9;&#x9;<polygon class="st1" points="11.4,12.6 11.4,12.7 11.6,12.7 11.7,12.7 &#x9;&#x9;&#x9;"></polygon>
&#x9;&#x9;</g>
&#x9;&#x9;<g>
&#x9;&#x9;&#x9;<polygon class="st1" points="11.5,13.4 11.9,14.6 11.7,13.5 &#x9;&#x9;&#x9;"></polygon>
&#x9;&#x9;</g>
&#x9;&#x9;<g>
&#x9;&#x9;&#x9;<path class="st1" d="M9.8,18c-0.2,0.3-0.8,1-1,1.4c0.1-0.2,0.4-0.8,0.9-1.6c0.1-0.1,0.1-0.2,0-0.3c-0.1-0.2-0.3-0.7-0.6-1.3&#xA;&#x9;&#x9;&#x9;&#x9;c0,0,0.7,0.8,0.8,1.5C9.9,17.9,9.9,18,9.8,18z"></path>
&#x9;&#x9;</g>
&#x9;&#x9;<g>
&#x9;&#x9;&#x9;<path class="st1" d="M8.9,18.3c-0.1,0.2-0.7,0.5-1.4,0.3c-0.3-0.1-0.5-0.1-0.5-0.2c0,0,0,0,0-0.1c0,0,0,0,0-0.1c0,0,0,0,0-0.1&#xA;&#x9;&#x9;&#x9;&#x9;c0,0,0,0,0-0.1c0,0,0,0,0-0.1c0,0,0,0,0,0c0,0,0,0,0-0.1c0,0,0,0,0-0.1c0-0.1,0.1-0.1,0.1-0.2c0,0,0,0,0-0.1c0,0,0,0,0-0.1&#xA;&#x9;&#x9;&#x9;&#x9;c0,0,0-0.1,0.1-0.1c0,0,0,0,0-0.1c0-0.1,0.1-0.1,0.1-0.2c0,0,0,0,0.1-0.1c0,0,0-0.1,0.1-0.1c0,0,0-0.1,0.1-0.1c0,0,0,0,0,0&#xA;&#x9;&#x9;&#x9;&#x9;c0,0,0,0,0,0c0.1-0.1,0.1-0.1,0.2-0.2c0,0,0,0,0.1-0.1c0,0,0,0,0,0c0,0,0.1,0,0.1-0.1c0,0,0,0,0,0c0,0,0.1,0.1,0.1,0.1&#xA;&#x9;&#x9;&#x9;&#x9;c0,0.2,0.1,0.6,0.2,0.7C8.7,17.7,8.9,18.2,8.9,18.3z"></path>
&#x9;&#x9;</g>
&#x9;&#x9;<g>
&#x9;&#x9;&#x9;<path class="st0" d="M23.5,17.9c-0.3-0.4-1-0.9-1.3-1.1c-0.1-0.1-0.1-0.2-0.1-0.3c-0.1-0.7,0.4-1.5,0.5-1.6&#xA;&#x9;&#x9;&#x9;&#x9;c-0.2,0.6-0.3,1.1-0.4,1.4c0,0.1,0,0.2,0.1,0.2C23,17.2,23.3,17.7,23.5,17.9z"></path>
&#x9;&#x9;</g>
&#x9;&#x9;<g>
&#x9;&#x9;&#x9;<path class="st0" d="M25.1,16.6C25.1,16.6,25.1,16.6,25.1,16.6c-0.1,0.1-0.2,0.2-0.5,0.3c-0.7,0.3-1.3,0.1-1.4,0&#xA;&#x9;&#x9;&#x9;&#x9;c-0.1-0.2,0.1-0.7,0.2-0.9c0.1-0.3,0.1-0.5,0.1-0.7c0-0.1,0-0.1,0.1-0.1c0,0,0.1,0,0.1,0.1c0,0,0.1,0,0.1,0&#xA;&#x9;&#x9;&#x9;&#x9;c0.1,0.1,0.2,0.1,0.3,0.2c0,0,0,0,0,0c0,0,0,0,0,0c0,0,0.1,0,0.1,0.1c0,0,0,0,0,0c0,0,0,0,0,0c0,0,0.1,0,0.1,0.1l0,0&#xA;&#x9;&#x9;&#x9;&#x9;c0,0,0.1,0,0.1,0.1c0,0,0,0,0.1,0C24.7,16,24.9,16.3,25.1,16.6z"></path>
&#x9;&#x9;</g>
&#x9;&#x9;<g>
&#x9;&#x9;&#x9;<path class="st2" d="M21.8,19.6c-0.2,0.1-0.3,0.3-0.4,0.5c-0.1,0.2-0.2,0.5-0.2,0.7c0,0.1,0,0.3,0,0.4c0,0.1,0,0.1,0,0.2&#xA;&#x9;&#x9;&#x9;&#x9;c0,0,0,0.1,0,0.1l0,0.1c0,0.3,0.1,0.5,0.1,0.8c0,0,0,0,0,0c0,0,0,0,0,0c-0.1-0.2-0.2-0.5-0.3-0.8c0-0.1-0.1-0.3-0.1-0.4&#xA;&#x9;&#x9;&#x9;&#x9;c0-0.1,0-0.2,0-0.2c0,0,0-0.1,0-0.1l0-0.1l0-0.1c0-0.3,0.1-0.6,0.3-0.8C21.3,19.8,21.6,19.6,21.8,19.6z"></path>
&#x9;&#x9;</g>
&#x9;&#x9;<g>
&#x9;&#x9;&#x9;<path class="st2" d="M17.8,21.6c0,0,0.5,0.9,0.4,1.3c0,0,0.9-0.7,1.3-0.7c0,0-0.1-0.7-0.2-0.7C19.2,21.4,18.2,21.4,17.8,21.6z"></path>
&#x9;&#x9;</g>
&#x9;&#x9;<g>
&#x9;&#x9;&#x9;<path class="st2" d="M17.3,21.7L17.3,21.7c-0.3,0-0.5,0-0.8,0.1c-0.3,0-0.5,0.1-0.8,0.2c-0.2,0.1-0.5,0.2-0.7,0.3&#xA;&#x9;&#x9;&#x9;&#x9;c-0.1,0.1-0.2,0.1-0.4,0.1c-0.1,0-0.3,0.1-0.4,0.1c-0.1,0-0.3,0-0.4,0c-0.1,0-0.3,0-0.4-0.1c0,0,0,0-0.1,0c-0.1,0-0.2,0-0.3,0&#xA;&#x9;&#x9;&#x9;&#x9;c-0.1,0-0.3,0-0.4,0c-0.1,0-0.1,0-0.2,0c-0.2,0-0.4,0.1-0.6,0.1c0,0,0,0,0,0c-0.1,0-0.2,0-0.2,0.1c0,0,0,0,0,0c0,0-0.1,0-0.1,0&#xA;&#x9;&#x9;&#x9;&#x9;c-0.1,0-0.1,0-0.2,0.1c-0.1,0-0.1,0-0.2,0.1l-0.3,0.1l0-0.3c0-0.1,0-0.1,0-0.2c0-0.1,0-0.1,0.1-0.2c0-0.1,0.1-0.1,0.1-0.2&#xA;&#x9;&#x9;&#x9;&#x9;c0,0,0-0.1,0.1-0.1c0,0,0,0,0,0c0,0,0,0,0,0l0,0l0-0.1c0-0.1,0-0.1,0-0.2c0-0.1-0.1-0.3-0.1-0.4c0-0.1-0.1-0.3-0.1-0.4l-0.1-0.4&#xA;&#x9;&#x9;&#x9;&#x9;l0,0c0.1,0.1,0.2,0.2,0.2,0.4c0.1,0.1,0.1,0.2,0.2,0.4c0.1,0.1,0.1,0.3,0.2,0.4c0,0.1,0.1,0.3,0.1,0.4l0,0l0,0.1l0,0c0,0,0,0,0,0&#xA;&#x9;&#x9;&#x9;&#x9;c0,0,0,0.1,0,0.1c0,0.1,0,0.1-0.1,0.2c0,0,0,0,0,0c0,0,0.1,0,0.1,0c0.1,0,0.3-0.1,0.4-0.1c0.1,0,0.3,0,0.4-0.1c0.1,0,0.3,0,0.4,0&#xA;&#x9;&#x9;&#x9;&#x9;c0.1,0,0.3,0,0.4,0c0.1,0,0.2,0,0.4,0.1c0,0,0,0,0,0c0.1,0,0.3,0.1,0.4,0.1c0.1,0,0.2,0,0.2,0c0,0,0.1,0,0.1,0c0.1,0,0.2,0,0.4,0&#xA;&#x9;&#x9;&#x9;&#x9;c0.1,0,0.2-0.1,0.4-0.1c0.1,0,0.1-0.1,0.2-0.1c0,0,0,0,0,0c0.2-0.1,0.4-0.1,0.5-0.2c0.3-0.1,0.5-0.1,0.8-0.2c0.1,0,0.3,0,0.4,0&#xA;&#x9;&#x9;&#x9;&#x9;C17,21.6,17.2,21.7,17.3,21.7z"></path>
&#x9;&#x9;</g>
&#x9;&#x9;<g>
&#x9;&#x9;&#x9;<path class="st2" d="M20.8,22.4c-0.1,0-0.2,0-0.3,0c-0.1,0-0.1,0-0.2,0c-0.7,0.1-1.6,0.5-1.6,0.6c0.5-0.5,1.2-0.7,1.2-0.7&#xA;&#x9;&#x9;&#x9;&#x9;c0.1-0.2-0.1-0.6-0.1-0.6c0,0,0,0,0,0c0.3,0,0.5,0.1,0.7,0.2c0.1,0,0.1,0.1,0.2,0.1c0.1,0.1,0.1,0.1,0.1,0.1l0,0.1L20.8,22.4z"></path>
&#x9;&#x9;</g>
&#x9;&#x9;<g>
&#x9;&#x9;&#x9;<path class="st2" d="M17.5,21.9c0.1,0.1,0.2,0.2,0.2,0.3c0.1,0.1,0.1,0.2,0.2,0.3c0,0.1,0.1,0.2,0.1,0.4c0,0.1,0,0.2,0,0.4&#xA;&#x9;&#x9;&#x9;&#x9;c0-0.1,0-0.2-0.1-0.3c0-0.1-0.1-0.2-0.1-0.3c0-0.1-0.1-0.2-0.1-0.3C17.6,22.1,17.5,22,17.5,21.9z"></path>
&#x9;&#x9;</g>
&#x9;&#x9;<g>
&#x9;&#x9;&#x9;<path class="st0" d="M25.3,17.1c-0.1,0.1-0.3,0.1-0.4,0.2c-0.2,0.1-0.3,0.1-0.5,0.1c-0.2,0-0.3,0-0.5,0c-0.2,0-0.3-0.1-0.5-0.1&#xA;&#x9;&#x9;&#x9;&#x9;c0.2,0,0.3,0.1,0.5,0.1c0.2,0,0.3,0,0.5,0c0.2,0,0.3-0.1,0.4-0.1c0.1-0.1,0.3-0.2,0.4-0.2l0,0C25.2,16.9,25.3,17,25.3,17.1z"></path>
&#x9;&#x9;</g>
&#x9;&#x9;<g>
&#x9;&#x9;&#x9;<path class="st1" d="M8.4,18.8c-0.1,0.1-0.3,0.1-0.5,0.1c-0.2,0-0.3,0-0.5,0c-0.2,0-0.3,0-0.5-0.1c0,0-0.1,0-0.1,0&#xA;&#x9;&#x9;&#x9;&#x9;c0-0.1,0-0.1,0-0.2c0,0,0.1,0,0.1,0.1c0.1,0.1,0.3,0.1,0.4,0.1c0.2,0,0.3,0,0.5,0C8.1,18.8,8.2,18.8,8.4,18.8z"></path>
&#x9;&#x9;</g>
&#x9;&#x9;<g>
&#x9;&#x9;&#x9;<path d="M11.3,27.8c-0.4,0.1-0.8,0.1-0.9,0C10.8,27.9,11.2,27.8,11.3,27.8z"></path>
&#x9;&#x9;</g>
&#x9;&#x9;<g>
&#x9;&#x9;&#x9;<path class="st1" d="M8.5,22.1c0,0-0.9,0.1-1.1-0.6C7.2,21.7,7,22,7,22c0.1-0.4,0.3-0.7,0.3-0.7c-0.2-0.5-0.1-2-0.1-2&#xA;&#x9;&#x9;&#x9;&#x9;c0.1,1.5,0.3,1.8,0.4,1.9c0,0,0.1,0.1,0.1,0.1C7.8,21.5,8,22,8.5,22.1z"></path>
&#x9;&#x9;</g>
&#x9;&#x9;<g>
&#x9;&#x9;&#x9;<path class="st0" d="M25.1,20.8c0.2,0.2,0.1,0.8,0.1,0.8c0-0.6-0.6-0.7-0.6-0.7c0.5-0.5,0.5-3.2,0.5-3.2&#xA;&#x9;&#x9;&#x9;&#x9;C25.4,18.9,25.1,20.8,25.1,20.8z"></path>
&#x9;&#x9;</g>
&#x9;&#x9;<g>
&#x9;&#x9;&#x9;<path class="st1" d="M7.4,22.1c0,0.3,0,0.7,0,1c0,0.3,0,0.6,0,1c0,0.3,0,0.6,0.1,0.9c0,0.2,0.1,0.3,0.1,0.4&#xA;&#x9;&#x9;&#x9;&#x9;c0,0.1,0.1,0.3,0.2,0.4l0,0.1l0,0.1c0,0,0,0.1,0,0.1c0,0,0,0.1,0,0.1c0,0.1,0,0.1,0,0.2c0,0.1,0.1,0.2,0.1,0.3&#xA;&#x9;&#x9;&#x9;&#x9;C8.1,26.9,8.3,27,8.6,27c0,0,0.1,0,0.1,0c0,0,0.1,0,0.1,0l0.2,0c0.1,0,0.3,0,0.4,0c0.3,0,0.6,0,0.8,0c0.3,0,0.6,0,0.8,0&#xA;&#x9;&#x9;&#x9;&#x9;c0.3,0,0.5-0.1,0.8-0.2c0.3-0.1,0.5-0.2,0.8-0.3c0.2-0.1,0.5-0.3,0.7-0.5l0,0c-0.2,0.2-0.4,0.4-0.6,0.5c-0.2,0.1-0.5,0.3-0.8,0.4&#xA;&#x9;&#x9;&#x9;&#x9;c-0.5,0.2-1.1,0.3-1.7,0.3c-0.3,0-0.6,0-0.8,0c-0.1,0-0.3,0-0.4,0l-0.2,0c0,0-0.1,0-0.1,0c0,0-0.1,0-0.1,0&#xA;&#x9;&#x9;&#x9;&#x9;c-0.1,0-0.3-0.1-0.4-0.1c-0.1,0-0.1-0.1-0.2-0.1c-0.1-0.1-0.1-0.1-0.2-0.2c-0.1-0.1-0.2-0.3-0.2-0.4c0-0.1,0-0.2,0-0.2&#xA;&#x9;&#x9;&#x9;&#x9;c0,0,0-0.1,0-0.1c0,0,0-0.1,0-0.1l0,0.1c-0.1-0.2-0.2-0.3-0.2-0.5c-0.1-0.2-0.1-0.3-0.1-0.5c0-0.3-0.1-0.7-0.1-1&#xA;&#x9;&#x9;&#x9;&#x9;c0-0.2,0-0.3,0-0.5c0-0.2,0-0.3,0-0.5C7.2,22.8,7.3,22.4,7.4,22.1L7.4,22.1z"></path>
&#x9;&#x9;</g>
&#x9;&#x9;<g>
&#x9;&#x9;&#x9;<path class="st1" d="M13.5,26.3c0.1-0.2,0.3-0.3,0.4-0.5c0.1-0.1,0.3-0.3,0.4-0.4c0.1-0.1,0.2-0.1,0.2-0.2&#xA;&#x9;&#x9;&#x9;&#x9;c0.1-0.1,0.2-0.1,0.2-0.2l0.2-0.2c0.1-0.1,0.2-0.1,0.2-0.2c0.2-0.1,0.3-0.2,0.5-0.3c0.2-0.1,0.3-0.2,0.5-0.3&#xA;&#x9;&#x9;&#x9;&#x9;c0.1,0,0.2-0.1,0.3-0.1l0.1-0.1c0,0,0.1,0,0.1-0.1c0.1,0,0.2-0.1,0.3-0.1l0.3-0.1l0,0c-0.4,0.1-0.7,0.3-1.1,0.5&#xA;&#x9;&#x9;&#x9;&#x9;c-0.3,0.2-0.7,0.4-1,0.7c-0.3,0.2-0.6,0.5-0.9,0.7c-0.2,0.1-0.3,0.2-0.5,0.3C13.9,26.1,13.7,26.2,13.5,26.3L13.5,26.3z"></path>
&#x9;&#x9;</g>
&#x9;&#x9;<g>
&#x9;&#x9;&#x9;<path class="st0" d="M25,21.8c0,0.3,0,0.7-0.1,1c0,0.3-0.1,0.7-0.2,1c-0.1,0.3-0.2,0.7-0.4,1c-0.1,0.2-0.2,0.3-0.3,0.5&#xA;&#x9;&#x9;&#x9;&#x9;c-0.1,0.1-0.2,0.3-0.4,0.4l0.1-0.1c0,0,0,0,0,0l0,0c0,0,0,0,0,0c0,0,0,0.1,0,0.1c0,0,0,0.1-0.1,0.1c0,0-0.1,0.1-0.1,0.1l0,0.1&#xA;&#x9;&#x9;&#x9;&#x9;l0,0l0,0l-0.1,0.1c0,0-0.1,0.1-0.1,0.1c-0.1,0.1-0.2,0.1-0.2,0.2c-0.3,0.2-0.7,0.4-1,0.5L21.6,27c-0.1,0-0.2,0.1-0.3,0.1&#xA;&#x9;&#x9;&#x9;&#x9;l-0.3,0.1l-0.1,0l-0.1,0l-0.3,0c-0.1,0-0.2,0-0.3,0l-0.5,0l0,0l0.5-0.1c0.1,0,0.2,0,0.3-0.1l0.3-0.1l0.1,0l0.1,0l0.3-0.1&#xA;&#x9;&#x9;&#x9;&#x9;c0.1,0,0.2-0.1,0.3-0.1l0.3-0.1c0.3-0.1,0.7-0.3,0.9-0.5c0.1-0.1,0.1-0.1,0.2-0.2c0,0,0.1-0.1,0.1-0.1l0.1-0.1l0,0l0,0l0-0.1&#xA;&#x9;&#x9;&#x9;&#x9;c0,0,0-0.1,0.1-0.1c0,0,0-0.1,0-0.1l0-0.1c0,0,0,0,0,0l0,0c0,0,0,0,0,0l0-0.1l0,0c0.1-0.1,0.2-0.2,0.3-0.3&#xA;&#x9;&#x9;&#x9;&#x9;c0.1-0.1,0.2-0.3,0.2-0.4c0-0.1,0.1-0.1,0.1-0.2c0,0,0-0.1,0-0.1c0,0,0-0.1,0-0.1l0.1-0.2l0.1-0.2c0.1-0.3,0.2-0.6,0.3-1L25,21.8&#xA;&#x9;&#x9;&#x9;&#x9;L25,21.8z"></path>
&#x9;&#x9;</g>
&#x9;&#x9;<g>
&#x9;&#x9;&#x9;<path class="st0" d="M19.3,27.5c-0.2,0-0.5,0.1-0.7,0.1c-0.2,0-0.5,0-0.7,0c-0.2,0-0.4,0-0.6,0c0,0,0,0,0,0&#xA;&#x9;&#x9;&#x9;&#x9;c-0.3,0-0.6-0.1-0.8-0.1c-0.5-0.1-1-0.2-1.4-0.3c-0.2-0.1-0.5-0.2-0.7-0.3c-0.2-0.1-0.4-0.2-0.6-0.4l0,0c0.4,0.3,0.9,0.4,1.3,0.5&#xA;&#x9;&#x9;&#x9;&#x9;c0.5,0.1,0.9,0.2,1.4,0.2c0.2,0,0.4,0,0.7,0.1c0,0,0,0,0.1,0c0.1,0,0.2,0,0.4,0c0.1,0,0.2,0,0.4,0C18.4,27.4,18.8,27.4,19.3,27.5&#xA;&#x9;&#x9;&#x9;&#x9;L19.3,27.5z"></path>
&#x9;&#x9;</g>
&#x9;&#x9;<g>
&#x9;&#x9;&#x9;<path class="st0" d="M17.6,27.3l-0.3,0.2c0,0,0,0,0,0c0-0.1-0.1-0.2-0.2-0.2c-0.1-0.1-0.2-0.2-0.3-0.3c-0.2-0.2-0.4-0.3-0.6-0.5&#xA;&#x9;&#x9;&#x9;&#x9;c-0.2-0.2-0.4-0.3-0.6-0.4c-0.2-0.1-0.4-0.3-0.7-0.4l0,0c0.2,0.1,0.5,0.2,0.7,0.3c0.2,0.1,0.5,0.2,0.7,0.4&#xA;&#x9;&#x9;&#x9;&#x9;c0.2,0.1,0.4,0.3,0.6,0.5C17.2,26.9,17.4,27.1,17.6,27.3C17.5,27.3,17.5,27.3,17.6,27.3z"></path>
&#x9;&#x9;</g>
&#x9;</g>
</g>
</svg>