<?xml version="1.0" encoding="utf-8"?>

<svg version="1.1" id="Layer_1" xmlns="http://www.w3.org/2000/svg" xmlns:xlink="http://www.w3.org/1999/xlink" x="0px" y="0px" viewBox="0 0 254.3 254.3" style="enable-background:new 0 0 254.3 254.3;" xml:space="preserve">

<path class="st1" d="M254.3,33.3C254.3,14.9,239.4,0,221,0H33.3C14.9,0,0,14.9,0,33.3V221c0,18.4,14.9,33.3,33.3,33.3H221&#xA;&#x9;c18.4,0,33.3-14.9,33.3-33.3V33.3z M126.2,57.4l52.7,25.8l-51.3,51.3L75.4,82.3L126.2,57.4z M61.5,122.6V97.9l51.3,51.1l-30.8,30.7&#xA;&#x9;C70.7,167.2,61.5,149,61.5,122.6L61.5,122.6z M126.2,205c0,0-13.5-2.6-28.1-12.1l29.4-29.4l28.3,28.3&#xA;&#x9;C140.7,202.3,126.2,205,126.2,205L126.2,205z M190,122.6c0,25.4-8.2,43.2-18.9,55.6L141.7,149l48.3-48.4V122.6z M190,122.6"></path>
</svg>