<?xml version="1.0" encoding="utf-8"?>
<!-- Generator: Adobe Illustrator 22.0.1, SVG Export Plug-In . SVG Version: 6.00 Build 0)  -->
<svg version="1.1" id="Layer_1" xmlns="http://www.w3.org/2000/svg" xmlns:xlink="http://www.w3.org/1999/xlink" x="0px" y="0px"
	 viewBox="0 0 254.2 254.2" style="enable-background:new 0 0 254.2 254.2;" xml:space="preserve">
<style type="text/css">
	.st0{fill:#0A0A0A;}
	.st1{fill:#F90606;}
	.st2{fill:#FFFFFF;}
</style>
<path class="st1" d="M221,0H33.3C14.9,0,0,14.9,0,33.3V221c0,18.4,14.9,33.3,33.3,33.3H221c18.4,0,33.3-14.9,33.3-33.3V33.3
	C254.2,14.9,239.4,0,221,0z M186.7,191.5c0,6.2-4.5,11.2-10.6,11.2h-24.6v-57.9c0-4-2.7-7.3-6.7-7.3h-35.3c-4,0-7.8,3.2-7.8,7.3
	v57.9H78.1c-6.2,0-11.7-5-11.7-11.2v-58.5l56-55.8c1.2-1.2,3-1.8,4.6-1.8c1.6,0,3,0.6,4.2,1.8l55.5,55.8V191.5z M200.2,125.5
	c-1.9,1.9-5.1,1.9-7.1,0l-62.4-62.4c-2-2-5.2-2-7.2,0l-62.4,62.4c-1,1-2.2,1.5-3.5,1.5c-1.3,0-2.6-0.5-3.5-1.5
	c-1.9-1.9-1.9-5.1,0-7.1L116.5,56c5.9-5.9,15.4-5.9,21.3,0l62.4,62.4C202.1,120.4,202.1,123.5,200.2,125.5z"/>
</svg>
