<?xml version="1.0" encoding="utf-8"?>

<svg version="1.1" id="Layer_1" xmlns="http://www.w3.org/2000/svg" xmlns:xlink="http://www.w3.org/1999/xlink" x="0px" y="0px" viewBox="0 0 254.3 254.3" style="enable-background:new 0 0 254.3 254.3;" xml:space="preserve">

<path class="st2" d="M116.2,69.7h21.9v10.9h-21.9V69.7z M254.3,221c0,18.4-14.9,33.3-33.3,33.3H33.3C14.9,254.3,0,239.4,0,221V33.3&#xA;&#x9;C0,14.9,14.9,0,33.3,0H221c18.4,0,33.3,14.9,33.3,33.3V221z M189.8,90.9c0-5.7-4.6-10.3-10.3-10.3h-21V68.5c0-11-8.5-19.3-19.5-19.3&#xA;&#x9;h-23c-11,0-20.4,8.3-20.4,19.3v12.1h-20c-5.7,0-10.3,4.6-10.3,10.3c0,5.7,4.6,10.3,10.3,10.3h2.3v70.2c0,13.3,10.8,24.1,24.1,24.1&#xA;&#x9;h51.1c13.3,0,23.2-10.9,23.2-24.1v-70.2h3.2C185.2,101.2,189.8,96.6,189.8,90.9L189.8,90.9z M189.8,90.9"></path>
</svg>