<?xml version="1.0" encoding="utf-8"?>

<svg version="1.1" id="Layer_1" xmlns="http://www.w3.org/2000/svg" xmlns:xlink="http://www.w3.org/1999/xlink" x="0px" y="0px" viewBox="0 0 254.3 254.3" style="enable-background:new 0 0 254.3 254.3;" xml:space="preserve">

<g>
&#x9;<path class="st1" d="M254.3,33.3C254.3,14.9,239.4,0,221,0H33.3C14.9,0,0,14.9,0,33.3V221c0,18.4,14.9,33.3,33.3,33.3H221&#xA;&#x9;&#x9;c18.4,0,33.3-14.9,33.3-33.3V33.3z M126.4,59c17.9,0,32.5,14.5,32.5,32.5c0,17.9-14.5,32.5-32.5,32.5S94,109.3,94,91.4&#xA;&#x9;&#x9;C94,73.5,108.5,59,126.4,59L126.4,59z M179,209.1H76.2c-9.8,0-17.8-8-17.8-17.8c0-28,17.3-52.1,41.7-62c7.5,5.2,16.5,8.2,26.3,8.2&#xA;&#x9;&#x9;c10.1,0,19.5-3.3,27.1-8.8c25.2,9.5,43.2,34,43.2,62.6C196.8,201.1,188.8,209.1,179,209.1L179,209.1z M179,209.1"></path>
</g>
</svg>