<?xml version="1.0" encoding="utf-8"?>

<svg version="1.1" id="Layer_1" xmlns="http://www.w3.org/2000/svg" xmlns:xlink="http://www.w3.org/1999/xlink" x="0px" y="0px" viewBox="0 0 254.2 254.2" style="enable-background:new 0 0 254.2 254.2;" xml:space="preserve">

<path class="st2" d="M221,0H33.3C14.9,0,0,14.9,0,33.3V221c0,18.4,14.9,33.3,33.3,33.3H221c18.4,0,33.3-14.9,33.3-33.3V33.3&#xA;&#x9;C254.2,14.9,239.4,0,221,0z M60.4,71.6h133.8c2.1,0,4,0.7,5.6,1.6l-72.6,69.9L53.4,74.2C55.3,72.6,57.7,71.6,60.4,71.6z M49.2,171.5&#xA;&#x9;v-87l47.7,44.4l-47.2,45.5C49.4,173.4,49.2,172.5,49.2,171.5z M194.2,182.6H60.4c-1.3,0-2.6-0.3-3.7-0.7l47.8-46.1l19.4,18&#xA;&#x9;c1,0.9,2.2,1.4,3.5,1.4c1.3,0,2.5-0.5,3.5-1.4l19.4-18.7l49.3,46C198,182,196.1,182.6,194.2,182.6z M205,172.4l-47.5-44.4L205,82.3&#xA;&#x9;c0,0.2-0.1,0.3-0.1,0.5v88.7C204.9,171.8,205,172.1,205,172.4z"></path>
</svg>