<?xml version="1.0" encoding="utf-8"?>
<!-- Generator: Adobe Illustrator 22.0.1, SVG Export Plug-In . SVG Version: 6.00 Build 0)  -->
<svg version="1.1" id="Layer_1" xmlns="http://www.w3.org/2000/svg" xmlns:xlink="http://www.w3.org/1999/xlink" x="0px" y="0px"
	 viewBox="0 0 254.3 254.3" style="enable-background:new 0 0 254.3 254.3;" xml:space="preserve">
<style type="text/css">
	.st0{fill:#0A0A0A;}
	.st1{fill:#F90606;}
	.st2{fill:#FFFFFF;}
</style>
<path class="st2" d="M140.7,84.9c15.4,15.4,15.4,40.5,0,55.9c-15.4,15.4-40.5,15.4-55.9,0c-15.4-15.4-15.4-40.5,0-55.9
	c7.7-7.7,17.8-11.5,27.9-11.5C122.9,73.3,133,77.2,140.7,84.9L140.7,84.9z M254.3,221c0,18.4-14.9,33.3-33.3,33.3H33.3
	C14.9,254.3,0,239.4,0,221V33.3C0,14.9,14.9,0,33.3,0H221c18.4,0,33.3,14.9,33.3,33.3V221z M199.4,183.9l-37.1-37.1
	c16.1-23.4,13.7-55.7-7-76.4C131.8,47,93.7,47,70.3,70.4c-23.4,23.4-23.4,61.5,0,84.9c11.7,11.7,27.1,17.5,42.4,17.5
	c12.3,0,24.7-3.8,35.1-11.3l37,37c2,2,4.6,3,7.3,3c2.6,0,5.2-1,7.2-3C203.4,194.4,203.4,187.9,199.4,183.9L199.4,183.9z
	 M199.4,183.9"/>
</svg>
