<?xml version="1.0" encoding="utf-8"?>
<!-- Generator: Adobe Illustrator 22.0.1, SVG Export Plug-In . SVG Version: 6.00 Build 0)  -->
<svg version="1.1" id="Layer_1" xmlns="http://www.w3.org/2000/svg" xmlns:xlink="http://www.w3.org/1999/xlink" x="0px" y="0px"
	 viewBox="0 0 254.2 254.2" style="enable-background:new 0 0 254.2 254.2;" xml:space="preserve">
<style type="text/css">
	.st0{fill:#0A0A0A;}
	.st1{fill:#F90606;}
	.st2{fill:#FFFFFF;}
</style>
<path class="st2" d="M221,0H33.3C14.9,0,0,14.9,0,33.3V221c0,18.4,14.9,33.3,33.3,33.3H221c18.4,0,33.3-14.9,33.3-33.3V33.3
	C254.2,14.9,239.4,0,221,0z M145.9,56.6c0.5,0.1,1.1,0.3,1.6,0.5c0.7,0.2,1.3,0.4,2,0.6c0.6,0.2,1.1,0.4,1.6,0.6
	c0.6,0.2,1.3,0.4,1.9,0.7c0.5,0.2,1.1,0.4,1.6,0.6c0.6,0.3,1.2,0.5,1.9,0.8c0.5,0.2,1.1,0.5,1.6,0.7c0.6,0.3,1.2,0.6,1.8,0.9
	c0.5,0.3,1,0.5,1.6,0.8c0.6,0.3,1.2,0.6,1.8,1c0.5,0.3,1,0.6,1.5,0.9c0.6,0.3,1.1,0.7,1.7,1.1c0.5,0.3,1,0.6,1.5,1
	c0.6,0.4,1.1,0.8,1.6,1.2c0.5,0.3,1,0.7,1.4,1c0.5,0.4,1.1,0.8,1.6,1.2c0.5,0.4,0.9,0.7,1.4,1.1c0.5,0.4,1,0.9,1.5,1.3
	c0.4,0.4,0.9,0.8,1.3,1.2c0.5,0.5,1,0.9,1.5,1.4c0.4,0.4,0.8,0.8,1.3,1.2c0.1,0.1,0.1,0.2,0.2,0.2c-5.7,2.9-11.7,5.2-17.9,6.9
	c-3.2-10.3-8.9-19.6-16.7-27.1C145.5,56.5,145.7,56.5,145.9,56.6z M129.7,54.3c11.2,1.6,20.9,13.2,27.1,30.4c-8.9,2-18,3.1-27.1,3.2
	V54.3z M129.7,93.2c9.7-0.1,19.3-1.3,28.7-3.4c3.3,11.3,5,23,5.1,34.8h-33.9V93.2z M129.7,129.7h33.9c-0.1,11.8-1.9,23.5-5.1,34.8
	c-9.4-2.1-19.1-3.3-28.7-3.4V129.7z M74.7,76.4c0.4-0.4,0.8-0.8,1.3-1.3c0.5-0.5,1-1,1.5-1.4c0.4-0.4,0.9-0.8,1.3-1.2
	c0.5-0.4,1-0.9,1.5-1.3c0.5-0.4,0.9-0.8,1.4-1.1c0.5-0.4,1-0.8,1.6-1.2c0.5-0.4,1-0.7,1.4-1c0.5-0.4,1.1-0.8,1.6-1.1
	c0.5-0.3,1-0.7,1.5-1c0.6-0.3,1.1-0.7,1.7-1c0.5-0.3,1-0.6,1.5-0.9c0.6-0.3,1.2-0.6,1.7-1c0.5-0.3,1-0.5,1.6-0.8
	c0.6-0.3,1.2-0.6,1.8-0.9c0.5-0.2,1.1-0.5,1.6-0.7c0.6-0.3,1.2-0.5,1.9-0.8c0.5-0.2,1.1-0.4,1.6-0.6c0.6-0.2,1.3-0.5,1.9-0.7
	c0.5-0.2,1.1-0.4,1.6-0.6c0.7-0.2,1.3-0.4,2-0.6c0.5-0.2,1.1-0.3,1.6-0.5c0.2-0.1,0.4-0.1,0.6-0.2c-7.7,7.5-13.4,16.8-16.7,27
	c-6.2-1.6-12.2-3.9-17.9-6.9C74.5,76.5,74.6,76.4,74.7,76.4z M70.9,80.6c6.3,3.4,12.9,6,19.8,7.9c-3.4,11.7-5.1,23.9-5.3,36.1H54.2
	C54.8,108.4,60.6,93,70.9,80.6z M54.2,129.7h31.3c0.1,12.2,1.9,24.3,5.3,36.1c-6.9,1.8-13.5,4.5-19.8,7.9
	C60.6,161.3,54.8,145.8,54.2,129.7z M108.4,197.7c-0.5-0.1-1.1-0.3-1.6-0.5c-0.7-0.2-1.3-0.4-2-0.6c-0.5-0.2-1.1-0.4-1.6-0.6
	c-0.6-0.2-1.3-0.4-1.9-0.7c-0.5-0.2-1.1-0.4-1.6-0.6c-0.6-0.3-1.2-0.5-1.9-0.8c-0.5-0.2-1.1-0.5-1.6-0.7c-0.6-0.3-1.2-0.6-1.8-0.9
	c-0.5-0.3-1-0.5-1.6-0.8c-0.6-0.3-1.2-0.6-1.8-1c-0.5-0.3-1-0.6-1.5-0.9c-0.6-0.3-1.1-0.7-1.7-1.1c-0.5-0.3-1-0.6-1.5-1
	c-0.6-0.4-1.1-0.8-1.6-1.2c-0.5-0.3-1-0.7-1.4-1c-0.6-0.4-1.1-0.8-1.6-1.2c-0.5-0.4-0.9-0.7-1.4-1.1c-0.5-0.4-1-0.9-1.5-1.3
	c-0.4-0.4-0.9-0.8-1.3-1.2c-0.5-0.5-1-0.9-1.5-1.4c-0.4-0.4-0.8-0.8-1.2-1.2c-0.1-0.1-0.1-0.2-0.2-0.2c5.7-2.9,11.7-5.2,17.9-6.9
	c3.2,10.3,8.9,19.6,16.7,27.1C108.8,197.8,108.6,197.7,108.4,197.7z M124.5,199.9c-11.2-1.6-20.9-13.2-27.1-30.4
	c8.9-2,18-3.1,27.1-3.2V199.9z M124.5,161.1c-9.7,0.1-19.3,1.3-28.7,3.4c-3.3-11.3-5-23-5.1-34.8h33.9V161.1z M124.5,124.5H90.7
	c0.1-11.8,1.9-23.5,5.1-34.8c9.4,2.2,19.1,3.3,28.7,3.4V124.5z M124.5,87.9c-9.1-0.1-18.2-1.2-27.1-3.2
	c6.2-17.2,15.9-28.8,27.1-30.4V87.9z M129.7,199.9v-33.6c9.1,0.1,18.2,1.2,27.1,3.2C150.7,186.7,140.9,198.3,129.7,199.9z
	 M179.6,177.9c-0.4,0.4-0.8,0.8-1.3,1.2c-0.5,0.5-1,1-1.5,1.4c-0.4,0.4-0.9,0.8-1.3,1.2c-0.5,0.4-1,0.9-1.5,1.3
	c-0.5,0.4-0.9,0.7-1.4,1.1c-0.5,0.4-1.1,0.8-1.6,1.2c-0.5,0.3-1,0.7-1.4,1c-0.5,0.4-1.1,0.8-1.6,1.1c-0.5,0.3-1,0.7-1.5,1
	c-0.6,0.3-1.1,0.7-1.7,1c-0.5,0.3-1,0.6-1.5,0.9c-0.6,0.3-1.2,0.6-1.7,1c-0.5,0.3-1,0.5-1.6,0.8c-0.6,0.3-1.2,0.6-1.8,0.9
	c-0.5,0.2-1.1,0.5-1.6,0.7c-0.6,0.3-1.2,0.5-1.9,0.8c-0.5,0.2-1.1,0.4-1.6,0.6c-0.6,0.2-1.3,0.5-1.9,0.7c-0.5,0.2-1.1,0.4-1.6,0.6
	c-0.7,0.2-1.3,0.4-2,0.6c-0.5,0.2-1.1,0.3-1.6,0.5c-0.2,0.1-0.4,0.1-0.6,0.2c7.7-7.5,13.4-16.8,16.7-27.1c6.2,1.6,12.2,3.9,17.9,6.9
	C179.7,177.7,179.6,177.8,179.6,177.9z M183.3,173.7c-6.3-3.4-12.9-6-19.8-7.9c3.4-11.7,5.1-23.9,5.3-36.1h31.3
	C199.5,145.8,193.6,161.3,183.3,173.7z M168.8,124.5c-0.1-12.2-1.9-24.3-5.3-36.1c6.9-1.8,13.5-4.5,19.8-7.9
	c10.3,12.4,16.2,27.8,16.7,43.9H168.8z"/>
</svg>
