<?xml version="1.0" encoding="utf-8"?>
<!-- Generator: Adobe Illustrator 22.0.1, SVG Export Plug-In . SVG Version: 6.00 Build 0)  -->
<svg version="1.1" id="Layer_1" xmlns="http://www.w3.org/2000/svg" xmlns:xlink="http://www.w3.org/1999/xlink" x="0px" y="0px"
	 viewBox="0 0 254.3 254.3" style="enable-background:new 0 0 254.3 254.3;" xml:space="preserve">
<style type="text/css">
	.st0{fill:#0A0A0A;}
	.st1{fill:#F90606;}
	.st2{fill:#FFFFFF;}
</style>
<path class="st0" d="M254.3,33.3C254.3,14.9,239.4,0,221,0H33.3C14.9,0,0,14.9,0,33.3V221c0,18.4,14.9,33.3,33.3,33.3H221
	c18.4,0,33.3-14.9,33.3-33.3V33.3z M194.6,183.2h-134c-5.7,0-10.3-4.6-10.3-10.3c0-5.7,4.6-10.3,10.3-10.3h134
	c5.7,0,10.3,4.6,10.3,10.3C204.8,178.6,200.2,183.2,194.6,183.2L194.6,183.2z M194.6,135.3h-134c-5.7,0-10.3-4.6-10.3-10.3
	c0-5.7,4.6-10.3,10.3-10.3h134c5.7,0,10.3,4.6,10.3,10.3C204.8,130.7,200.2,135.3,194.6,135.3L194.6,135.3z M194.6,91.6H92
	c-5.7,0-10.3-4.6-10.3-10.3c0-5.7,4.6-10.3,10.3-10.3h102.5c5.7,0,10.3,4.6,10.3,10.3C204.8,87,200.2,91.6,194.6,91.6L194.6,91.6z
	 M194.6,91.6"/>
</svg>
