<?xml version="1.0" encoding="utf-8"?>
<!-- Generator: Adobe Illustrator 22.0.1, SVG Export Plug-In . SVG Version: 6.00 Build 0)  -->
<svg version="1.1" id="Layer_1" xmlns="http://www.w3.org/2000/svg" xmlns:xlink="http://www.w3.org/1999/xlink" x="0px" y="0px"
	 viewBox="0 0 254.2 254.2" style="enable-background:new 0 0 254.2 254.2;" xml:space="preserve">
<style type="text/css">
	.st0{fill:#0A0A0A;}
	.st1{fill:#F90606;}
	.st2{fill:#FFFFFF;}
</style>
<path class="st0" d="M221,0H33.3C14.9,0,0,14.9,0,33.3V221c0,18.4,14.9,33.3,33.3,33.3H221c18.4,0,33.3-14.9,33.3-33.3V33.3
	C254.2,14.9,239.4,0,221,0z M193.7,183.7l-6.2,6l-0.1-0.1c-2.6,2-5.6,3.7-8.8,5c-3,1.2-5.9,1.9-9,2.3c-1.4,0.2-34.1,3.2-74.7-37.3
	c-29.3-29.3-40.1-51-37.3-74.6c0.3-2.9,1.1-5.9,2.2-9c1.3-3.2,3-6.2,5-8.9l-0.2-0.2l6.1-6.1c4.5-4.5,11.6-4.6,15.9-0.3l21.6,21.6
	c4.3,4.3,4.2,11.4-0.3,15.9l-3.6,3.6l-7.3,7.3c0.4,0.7,0.8,1.4,1.2,2.1c3.8,6.9,9,16.3,19,26.2c9.9,9.9,19.3,15.1,26.2,18.9
	c0.7,0.4,1.5,0.8,2.1,1.2l10.9-10.9c4.5-4.5,11.6-4.6,15.9-0.3l21.6,21.6C198.3,172.1,198.1,179.2,193.7,183.7z"/>
</svg>
