<?xml version="1.0" encoding="utf-8"?>
<!-- Generator: Adobe Illustrator 22.0.1, SVG Export Plug-In . SVG Version: 6.00 Build 0)  -->
<svg version="1.1" id="Layer_1" xmlns="http://www.w3.org/2000/svg" xmlns:xlink="http://www.w3.org/1999/xlink" x="0px" y="0px"
	 viewBox="0 0 254.3 254.3" style="enable-background:new 0 0 254.3 254.3;" xml:space="preserve">
<style type="text/css">
	.st0{fill:#0A0A0A;}
	.st1{fill:#F90606;}
	.st2{fill:#FFFFFF;}
</style>
<g>
	<path class="st0" d="M254.3,33.3C254.3,14.9,239.4,0,221,0H33.3C14.9,0,0,14.9,0,33.3V221c0,18.4,14.9,33.3,33.3,33.3H221
		c18.4,0,33.3-14.9,33.3-33.3V33.3z M121.4,187.3c-0.1,1-0.3,1.8-0.6,2.5c-0.2,0.6-0.6,1-1,1.3c-0.4,0.3-0.8,0.3-1.3,0.3H63
		c-1.1,0-2,0-2.8-0.1c-0.8-0.2-1.4-0.4-1.9-1c-0.5-0.6-0.9-1.4-1.1-2.5c-0.2-1.1-0.3-2.5-0.3-4.3c0-1.6,0.1-3,0.2-4.2
		c0.2-1.2,0.4-2.2,0.8-3.1c0.4-0.9,0.9-1.8,1.5-2.7c0.6-0.9,1.4-1.8,2.4-2.9l16.7-17.9c3.3-3.5,6-6.7,8.1-9.5c2-2.9,3.6-5.5,4.8-7.8
		c1.1-2.4,1.9-4.5,2.3-6.5c0.4-2,0.6-3.9,0.6-5.7c0-1.6-0.3-3.2-0.8-4.7c-0.5-1.5-1.3-2.7-2.3-3.8c-1-1.1-2.3-1.9-3.8-2.6
		c-1.5-0.6-3.4-0.9-5.4-0.9c-2.9,0-5.5,0.4-7.8,1.1c-2.3,0.7-4.3,1.6-6,2.5c-1.7,0.9-3.1,1.8-4.3,2.5c-1.1,0.8-2,1.2-2.7,1.2
		c-0.4,0-0.8-0.1-1.2-0.4c-0.3-0.3-0.6-0.8-0.8-1.5c-0.2-0.7-0.4-1.6-0.5-2.8c-0.1-1.2-0.2-2.6-0.2-4.3c0-1.1,0-2.1,0.1-2.9
		c0.1-0.8,0.2-1.4,0.3-2c0.2-0.6,0.4-1.1,0.6-1.5c0.2-0.4,0.7-0.9,1.3-1.5c0.6-0.6,1.8-1.4,3.4-2.3c1.7-0.9,3.7-1.8,6.2-2.7
		c2.4-0.9,5.1-1.6,8.1-2.2c2.9-0.6,6-0.9,9.2-0.9c5,0,9.4,0.6,13.2,1.9c3.8,1.3,6.9,3,9.4,5.3c2.5,2.3,4.3,5,5.6,8.1
		c1.2,3.1,1.8,6.5,1.8,10c0,3.1-0.3,6.2-0.9,9.3c-0.6,3-1.8,6.3-3.7,9.9c-1.9,3.5-4.6,7.5-8,11.7c-3.4,4.3-8,9.3-13.7,15l-11.3,11.8
		h38.1c0.5,0,1-0.1,1.4,0.2c0.4,0.3,0.8,0.5,1.1,1.1c0.3,0.6,0.5,1.4,0.7,2.5c0.2,1,0.2,2.2,0.2,3.6
		C121.6,185.1,121.5,186.3,121.4,187.3L121.4,187.3z M195.4,174.3c-1.8,4.1-4.4,7.6-7.7,10.4c-3.3,2.8-7.3,5-11.9,6.5
		c-4.7,1.5-9.8,2.2-15.5,2.2c-3,0-5.8-0.2-8.5-0.6c-2.7-0.4-5.1-0.8-7.2-1.4c-2.1-0.6-3.9-1.1-5.3-1.7c-1.4-0.6-2.3-1-2.7-1.4
		c-0.4-0.4-0.7-0.8-0.9-1.2c-0.2-0.4-0.4-1-0.5-1.6c-0.1-0.6-0.2-1.4-0.3-2.3c-0.1-0.9-0.1-2.1-0.1-3.4c0-1.4,0-2.6,0.1-3.6
		c0.1-1,0.3-1.7,0.5-2.3c0.2-0.6,0.5-1,0.8-1.3c0.3-0.2,0.6-0.4,1-0.4c0.5,0,1.3,0.3,2.3,0.9c1,0.6,2.4,1.2,4,1.9
		c1.7,0.7,3.7,1.3,6.1,1.9c2.4,0.6,5.2,0.9,8.6,0.9c2.9,0,5.5-0.3,7.9-0.9c2.4-0.6,4.4-1.6,6-2.9c1.6-1.3,2.9-3,3.8-5
		c0.9-2,1.3-4.4,1.3-7.2c0-2.4-0.4-4.5-1.1-6.4c-0.7-1.9-1.9-3.4-3.5-4.7c-1.6-1.3-3.7-2.3-6.2-2.9c-2.5-0.6-5.6-1-9.3-1
		c-2.9,0-5.5,0.1-7.9,0.4c-2.4,0.3-4.6,0.4-6.7,0.4c-1.4,0-2.7-0.4-3.4-1.1c-0.6-0.7-1.2-2-1.2-4v-41.9c0-2,0.7-3.1,1.5-4
		c0.8-0.9,2.3-1,4-1h45.7c0.4,0,0.9-0.1,1.3,0.2c0.4,0.3,0.7,0.5,1,1.1c0.3,0.6,0.5,1.5,0.6,2.6c0.1,1.1,0.2,2.4,0.2,3.9
		c0,3-0.3,5.2-0.8,6.5c-0.5,1.3-1.3,2.1-2.3,2.1h-34.8v20.5c1.4-0.2,3.7-0.3,5.4-0.4c1.7,0,3.6-0.1,5.5-0.1c5.2,0,9.9,0.6,14,1.8
		c4.1,1.2,7.5,3,10.3,5.4c2.8,2.4,4.9,5.3,6.3,8.8c1.4,3.5,2.2,7.6,2.2,12.2C198.1,165.5,197.2,170.2,195.4,174.3L195.4,174.3z
		 M202.8,75.2H51c-5.7,0-10.3-4.6-10.3-10.3c0-5.7,4.6-10.3,10.3-10.3h151.7c5.7,0,10.3,4.6,10.3,10.3
		C213,70.6,208.4,75.2,202.8,75.2L202.8,75.2z M202.8,75.2"/>
</g>
</svg>
