<?xml version="1.0" encoding="utf-8"?>

<svg version="1.1" id="Layer_1" xmlns="http://www.w3.org/2000/svg" xmlns:xlink="http://www.w3.org/1999/xlink" x="0px" y="0px" viewBox="0 0 254.2 254.2" style="enable-background:new 0 0 254.2 254.2;" xml:space="preserve">

<g>
&#x9;<path class="st2" d="M221,0H33.3C14.9,0,0,14.9,0,33.3V221c0,18.4,14.9,33.3,33.3,33.3h119.9v-77.2h-23.1c-2,0-3.6-1.6-3.6-3.6&#xA;&#x9;&#x9;v-29.2c0-2,1.6-3.6,3.6-3.6h23.1v-20.1c0-26.5,16.7-43.6,42.5-43.6l23,0c2,0,3.6,1.6,3.6,3.6v27.1c0,2-1.6,3.6-3.6,3.6l-15.5,0&#xA;&#x9;&#x9;c-10.7,0-12.6,4.2-12.6,12.4v17.1h27c1,0,1.9,0.4,2.6,1.1c0.7,0.7,1.1,1.6,1.1,2.6l0,29.2c0,2-1.6,3.6-3.6,3.6h-27v77.2H221&#xA;&#x9;&#x9;c18.4,0,33.3-14.9,33.3-33.3V33.3C254.2,14.9,239.4,0,221,0z"></path>
</g>
</svg>