<?xml version="1.0" encoding="utf-8"?>
<!-- Generator: Adobe Illustrator 22.0.1, SVG Export Plug-In . SVG Version: 6.00 Build 0)  -->
<svg version="1.1" id="Layer_1" xmlns="http://www.w3.org/2000/svg" xmlns:xlink="http://www.w3.org/1999/xlink" x="0px" y="0px"
	 viewBox="0 0 254.3 254.3" style="enable-background:new 0 0 254.3 254.3;" xml:space="preserve">
<style type="text/css">
	.st0{fill:#0A0A0A;}
	.st1{fill:#F90606;}
	.st2{fill:#FFFFFF;}
</style>
<path class="st1" d="M161.1,127.1c0,18.5-15,33.5-33.5,33.5c-18.5,0-33.5-15-33.5-33.5c0-18.5,15-33.5,33.5-33.5
	C146.1,93.6,161.1,108.6,161.1,127.1L161.1,127.1z M254.3,221c0,18.4-14.9,33.3-33.3,33.3H33.3C14.9,254.3,0,239.4,0,221V33.3
	C0,14.9,14.9,0,33.3,0H221c18.4,0,33.3,14.9,33.3,33.3V221z M209.1,122.1c0-3.5-2.3-6.4-5.7-6.9l-17.6-2.7
	c-1.4-5.8-3.7-11.2-6.6-16.1l10.6-14.4c2.1-2.8,1.8-6.7-0.7-9.1l-7.1-7.1c-2.5-2.5-6.3-2.7-9.1-0.7l-14.4,10.6
	c-5-3-10.4-5.2-16.1-6.7l-2.7-17.7c-0.5-3.4-3.5-6-6.9-6h-10.1c-3.5,0-6.4,2.6-6.9,6l-2.7,17.7c-5.8,1.4-11.2,3.7-16.1,6.7
	L82.3,64.9c-2.8-2-6.7-1.7-9.1,0.7l-7.1,7.1c-2.4,2.5-2.7,6.3-0.7,9.1l10.6,14.4c-3,5-5.2,10.4-6.7,16.1l-17.9,2.7
	c-3.4,0.5-6.2,3.5-6.2,6.9v10.1c0,3.5,2.8,6.4,6.2,6.9l17.8,2.7c1.4,5.8,3.8,11.2,6.8,16.1l-10.6,14.4c-2,2.8-1.7,6.7,0.7,9.1
	l7.1,7.1c2.5,2.5,6.3,2.7,9.1,0.7l14.4-10.6c5,3,10.4,5.2,16.1,6.7l2.7,17.7c0.5,3.4,3.5,6,6.9,6h10.1c3.5,0,6.4-2.5,6.9-6l2.7-17.7
	c5.8-1.4,11.2-3.7,16.1-6.7l14.4,10.6c2.8,2.1,6.7,1.7,9.1-0.7l7.1-7.1c2.4-2.4,2.7-6.3,0.7-9.1L179.2,158c3-5,5.2-10.4,6.7-16.1
	l17.5-2.7c3.4-0.5,5.7-3.5,5.7-6.9V122.1z M209.1,122.1"/>
</svg>
