<?xml version="1.0" encoding="utf-8"?>
<!-- Generator: Adobe Illustrator 22.0.1, SVG Export Plug-In . SVG Version: 6.00 Build 0)  -->
<svg version="1.1" id="Layer_1" xmlns="http://www.w3.org/2000/svg" xmlns:xlink="http://www.w3.org/1999/xlink" x="0px" y="0px"
	 viewBox="0 0 254.2 254.2" style="enable-background:new 0 0 254.2 254.2;" xml:space="preserve">
<style type="text/css">
	.st0{fill:#0A0A0A;}
	.st1{fill:#F90606;}
	.st2{fill:#FFFFFF;}
</style>
<g>
	<path class="st1" d="M221,0H33.3C14.9,0,0,14.9,0,33.3V221c0,18.4,14.9,33.3,33.3,33.3H221c18.4,0,33.3-14.9,33.3-33.3V33.3
		C254.2,14.9,239.4,0,221,0z M203.3,173.8c0,9.4-7,16.7-16.4,16.7H68.4c-9.4,0-17.5-7.4-17.5-16.7V73.2c0-5.3,4.9-9.4,10.3-9.4H121
		c5.3,0,9.2,4.1,9.2,9.4v12.1H187c9.4,0,16.4,7.6,16.4,17V173.8z"/>
	<path class="st1" d="M150.9,135.5h-10.2v-23.1c0-2-1.9-3.4-4.7-3.4h-16.5c-2.8,0-5.2,1.4-5.2,3.4v23.1h-9.8c-2,0-3.3,1.7-2.3,2.9
		l23,27.9c1.1,1.3,3.9,1.3,5,0l23-27.8C154.2,137.1,153,135.5,150.9,135.5z"/>
</g>
</svg>
