<svg xmlns="http://www.w3.org/2000/svg" width="19.205" height="17" viewBox="0 0 19.205 17">
  <path id="icon-3" d="M-2445.231-1895a.533.533,0,0,1-.533-.533v-2.667h-2.7a.533.533,0,0,1-.533-.533v-9.6a.533.533,0,0,1,.056-.239,4.455,4.455,0,0,1,3.964-2.428h10.163a4.455,4.455,0,0,1,3.964,2.428.532.532,0,0,1,.056.239v9.6a.533.533,0,0,1-.533.533h-2.7v2.667a.533.533,0,0,1-.533.533Zm9.056-10.238a.533.533,0,0,1-.248.562l-4.008,2.4v6.2h5.333v-11.2a.533.533,0,0,1,.533-.533.533.533,0,0,1,.533.533v5.867h2.169v-6.8a3.385,3.385,0,0,0-2.954-1.731h-2.3Zm-8.523-2.029v11.2h3.2v-2.133h-1.6a.533.533,0,0,1-.533-.533.533.533,0,0,1,.533-.533h1.6v-4.285l-1.874-1.125a.533.533,0,0,1-.249-.562l.939-4.7h-2.3a3.386,3.386,0,0,0-2.954,1.731v6.8h2.169v-5.867a.533.533,0,0,1,.533-.533A.533.533,0,0,1-2444.7-1907.267Zm10.667,8h2.169v-1.067h-2.169Zm-13.9,0h2.169v-1.067h-2.169Zm7.5-5.719v1.47l3.136-1.882-.722-3.612Zm-2.07-.412,1,.6v-.338a.534.534,0,0,1,.076-.274l.9-1.5-1.259-2.1Zm2.6-2.551,1.191-1.985h-2.383Zm1.066,9.748a.533.533,0,0,1-.533-.533.533.533,0,0,1,.533-.533h2.133a.533.533,0,0,1,.533.533.533.533,0,0,1-.533.533Z" transform="translate(2449.5 1911.5)" fill="#6f6f6f" stroke="rgba(0,0,0,0)" stroke-miterlimit="10" stroke-width="1"/>
</svg>
