<svg xmlns="http://www.w3.org/2000/svg" width="10.313" height="16" viewBox="0 0 10.313 16">
  <path id="icon-4" d="M191.844,205.875h-1.406v-.469a.469.469,0,0,0-.469-.469h-1.406v-.469a.469.469,0,0,0-.469-.469h-1.875a.469.469,0,0,0-.469.469v.469h-1.406a.469.469,0,0,0-.469.469v4.25h-1.406a.469.469,0,0,0-.469.469v4.1a3.059,3.059,0,0,0,1.875,2.827v2.479a.469.469,0,0,0,.469.469h6.563a.469.469,0,0,0,.469-.469v-2.626a3.642,3.642,0,0,0,.938-2.45v-8.112a.469.469,0,0,0-.469-.469Zm-5.156,8.5v-2.844h4.688v2.844Zm4.688-7.562v1.906h-.937v-1.906Zm-1.875-.937v2.844h-.937v-2.844Zm-2.812-.937h.938v3.781h-.937Zm-.937.938v2.844h-.937v-2.844Zm-1.875,4.719v1.875h-.937v-1.875Zm.593,5.673a2.11,2.11,0,0,1-1.531-2.041v-.82h1.406a.469.469,0,0,0,.469-.469v-3.281h6.563v.938h-5.156a.469.469,0,0,0-.469.469v3.781a.468.468,0,0,0,.469.468h5.019a2.72,2.72,0,0,1-.663,1.075.469.469,0,0,0-.137.331v.469h-3.281a1.406,1.406,0,0,0-1.326,1.875h-1.018v-2.344a.469.469,0,0,0-.344-.452Zm2.688,2.8a.469.469,0,0,1,0-.937h3.281v.938Zm0,0" transform="translate(-182 -204)" fill="#6f6f6f"/>
</svg>
