<svg xmlns="http://www.w3.org/2000/svg" width="11.313" height="17" viewBox="0 0 11.313 17">
  <path id="icon-7" d="M-2071.656,130a2.346,2.346,0,0,1-2.344-2.344V114.469a.469.469,0,0,1,.469-.469h1.875a.469.469,0,0,1,.469.469v1.406h4.688v-1.406a.469.469,0,0,1,.469-.469h1.875a.469.469,0,0,1,.469.469v13.188a2.346,2.346,0,0,1-2.344,2.344Zm-1.406-11.781v1.406h1.406a.469.469,0,0,1,.463.393l.938,5.688a.468.468,0,0,1-.2.466l-2.583,1.722a1.408,1.408,0,0,0,1.386,1.169h5.625a1.408,1.408,0,0,0,1.386-1.169l-2.583-1.722a.468.468,0,0,1-.2-.466l.937-5.688a.469.469,0,0,1,.463-.393h1.406v-1.406a1.408,1.408,0,0,0-1.406-1.406h-5.625A1.408,1.408,0,0,0-2073.062,118.219Zm6.606,7.34,1.832,1.221v-6.218h-1.009Zm-6.606,1.221,1.832-1.221-.823-5h-1.009Zm7.5-10.858a2.328,2.328,0,0,1,.937.423v-1.408h-.937Zm-7.5.423a2.329,2.329,0,0,1,.938-.423v-.985h-.937Zm4.688,2.811v-.469h-3.281a.469.469,0,0,1-.469-.469.469.469,0,0,1,.469-.469h5.625a.469.469,0,0,1,.469.469.469.469,0,0,1-.469.469h-1.406v.469a.469.469,0,0,1-.469.469A.469.469,0,0,1-2068.375,119.157Z" transform="translate(2074.5 -113.5)" fill="#6f6f6f" stroke="rgba(0,0,0,0)" stroke-miterlimit="10" stroke-width="1"/>
</svg>
