<svg xmlns="http://www.w3.org/2000/svg" width="18.309" height="17" viewBox="0 0 18.309 17">
  <g id="icon-9" transform="translate(0.622 0.5)">
    <path id="Path_6269" data-name="Path 6269" d="M169.055,463.508A3.185,3.185,0,0,0,166.4,464.8a1.495,1.495,0,0,0-1.757,0,3.133,3.133,0,0,0-2.625-1.283,2.542,2.542,0,1,0,3,2.5.5.5,0,0,1,1,0,3.07,3.07,0,1,0,3.033-2.5Zm-7.033,4c-1.1,0-2.033-.687-2.033-1.5s.931-1.5,2.033-1.5,2,.673,2,1.5-.9,1.5-2,1.5Zm7.033,0c-1.1,0-2.033-.687-2.033-1.5s.931-1.5,2.033-1.5,2,.673,2,1.5-.9,1.5-2,1.5Zm0,0" transform="translate(-156.988 -452.508)" fill="#6f6f6f" stroke="rgba(0,0,0,0)" stroke-miterlimit="10" stroke-width="1"/>
    <path id="Path_6270" data-name="Path 6270" d="M130.627,226.941a1.5,1.5,0,0,0,0-2.123l-1.559-1.546v-2.186a5.128,5.128,0,0,0-5.139-5.106h-2.788A5.128,5.128,0,0,0,116,221.086v2.187l-1.561,1.567a1.5,1.5,0,0,0,2.123,2.12l.975-.98h10l.973.961a1.5,1.5,0,0,0,2.121,0Zm-9.488-9.961h2.788a4.127,4.127,0,0,1,4.139,4.106v1.894H117v-1.894a4.127,4.127,0,0,1,4.139-4.106Zm8.072,9.251-1.122-1.107a.5.5,0,0,0-.351-.144H117.328a.5.5,0,0,0-.354.147l-1.121,1.126a.5.5,0,0,1-.707-.707l1.561-1.566H128.36l1.559,1.546a.5.5,0,1,1-.709.7Zm0,0" transform="translate(-114 -215.98)" fill="#6f6f6f" stroke="rgba(0,0,0,0)" stroke-miterlimit="10" stroke-width="1"/>
    <path id="Path_6271" data-name="Path 6271" d="M252.857,258.345l-.175,1.051a.5.5,0,0,0,.724.526l.945-.491.945.491a.5.5,0,0,0,.724-.526l-.175-1.051.759-.747a.5.5,0,0,0-.276-.851l-1.053-.158-.476-.953a.5.5,0,0,0-.894,0l-.476.953-1.053.158a.5.5,0,0,0-.276.851Zm.976-.806a.5.5,0,0,0,.373-.271l.145-.29.145.29a.5.5,0,0,0,.373.271l.321.048-.231.228a.5.5,0,0,0-.142.438l.053.32-.288-.149a.5.5,0,0,0-.461,0l-.288.149.053-.32a.5.5,0,0,0-.143-.438l-.231-.228Zm0,0" transform="translate(-245.951 -253.609)" fill="#6f6f6f" stroke="rgba(0,0,0,0)" stroke-miterlimit="10" stroke-width="1"/>
  </g>
</svg>
