<svg xmlns="http://www.w3.org/2000/svg" width="21" height="11.547" viewBox="0 0 21 11.547">
  <g id="icon-8" transform="translate(0.5 0.5)">
    <path id="Path_6272" data-name="Path 6272" d="M131.661,297.4h0c-11.826-2.363-11.424-2.4-12.385-2.4a5.273,5.273,0,0,0,0,10.547c1.011,0,1.356-.2,12.385-2.4h0a2.93,2.93,0,0,0,0-5.74Zm-2.536,5.058-5.793,1.175a5.263,5.263,0,0,0,0-6.726l5.793,1.175a2.924,2.924,0,0,0,0,4.377Zm-13.953-2.188a4.1,4.1,0,1,1,4.1,4.1,4.106,4.106,0,0,1-4.1-4.1Zm15.9,1.758a1.758,1.758,0,1,1,1.758-1.758,1.76,1.76,0,0,1-1.758,1.758Zm0,0" transform="translate(-114 -295)" fill="#6f6f6f" stroke="rgba(0,0,0,0)" stroke-miterlimit="10" stroke-width="1"/>
    <path id="Path_6273" data-name="Path 6273" d="M431.672,385.586a.586.586,0,1,1-.586-.586.586.586,0,0,1,.586.586Zm0,0" transform="translate(-413.016 -380.313)" fill="#6f6f6f" stroke="rgba(0,0,0,0)" stroke-miterlimit="10" stroke-width="1"/>
    <path id="Path_6275" data-name="Path 6275" d="M165.906,362.578a.586.586,0,1,0,.214.8.586.586,0,0,0-.214-.8Zm0,0" transform="translate(-156.027 -358.984)" fill="#6f6f6f" stroke="rgba(0,0,0,0)" stroke-miterlimit="10" stroke-width="1"/>
    <path id="Path_6276" data-name="Path 6276" d="M165.32,407.576a.586.586,0,1,0,.8.214.586.586,0,0,0-.8-.214Zm0,0" transform="translate(-156.027 -401.638)" fill="#6f6f6f" stroke="rgba(0,0,0,0)" stroke-miterlimit="10" stroke-width="1"/>
    <path id="Path_6277" data-name="Path 6277" d="M205.172,430.586a.586.586,0,1,1-.586-.586.586.586,0,0,1,.586.586Zm0,0" transform="translate(-195 -422.969)" fill="#6f6f6f" stroke="rgba(0,0,0,0)" stroke-miterlimit="10" stroke-width="1"/>
  </g>
</svg>
