<svg xmlns="http://www.w3.org/2000/svg" width="13.125" height="16" viewBox="0 0 13.125 16">
  <path id="icon-5" d="M147.5,215.781v3.75a.469.469,0,0,0,.469.469h2.813a.469.469,0,0,0,.469-.469v-.469h.8l1.288.859a.467.467,0,0,0,.26.079h6.562a.469.469,0,0,0,.469-.469v-.937a2.346,2.346,0,0,0-2.344-2.344,4.376,4.376,0,0,1-2.812-1.155,4.127,4.127,0,0,1-1.405-2.973,13.754,13.754,0,0,0,1.791-4.3,4.889,4.889,0,0,0-.934-3.609.469.469,0,0,0-.538-.185l-3.75,1.25a.469.469,0,0,0-.32.445v.156h-1.406a.469.469,0,0,0-.393.213,6.56,6.56,0,0,0-1.014,3.1,6.175,6.175,0,0,0,.9,2.891l-.89,3.59a.538.538,0,0,0-.014.113Zm2.813,3.281h-1.875v-2.812h.469a1.408,1.408,0,0,1,1.406,1.406Zm.938-13.006,3.082-1.027a3.755,3.755,0,0,1,.577,2.752h-1.315a.469.469,0,1,0,0,.937h1.07c-.1.293-.225.6-.375.938h-1.163a.469.469,0,1,0,0,.937h.705q-.231.444-.509.938h-.665a.469.469,0,0,0,0,.938h.491a5.064,5.064,0,0,0,1.7,3.323,5.335,5.335,0,0,0,3.438,1.4,1.408,1.408,0,0,1,1.406,1.406v.469h-5.952l-1.288-.859a.467.467,0,0,0-.26-.079h-.937v-.469a2.346,2.346,0,0,0-2.344-2.344h-.338l.762-3.073,1.783-1.783a.468.468,0,0,0,.137-.332v-4.068Zm-2.077.756h1.139v3.118l-1.3,1.3a4.813,4.813,0,0,1-.572-2.047,5.357,5.357,0,0,1,.736-2.375Zm0,0" transform="translate(-147.5 -203.999)" fill="#6f6f6f"/>
</svg>
