<svg xmlns="http://www.w3.org/2000/svg" width="15.18" height="17" viewBox="0 0 15.18 17">
  <path id="icon-6" d="M-2070.844,137a3.3,3.3,0,0,1-3.249-2.844h-1.439a.469.469,0,0,1-.469-.469V129a.469.469,0,0,1,.469-.469,1.408,1.408,0,0,0,1.406-1.406v-1.712l-1.738-1.738a.469.469,0,0,1,0-.663l1.875-1.875a.469.469,0,0,1,.332-.137h1.875a.469.469,0,0,1,.469.469,1.408,1.408,0,0,0,1.406,1.406h1.875a1.408,1.408,0,0,0,1.406-1.406.469.469,0,0,1,.469-.469h1.875a.467.467,0,0,1,.331.138l1.875,1.875a.469.469,0,0,1,0,.663l-1.738,1.738v1.712a1.408,1.408,0,0,0,1.406,1.406.469.469,0,0,1,.469.469v4.687a.469.469,0,0,1-.469.469h-1.439a3.3,3.3,0,0,1-3.248,2.844Zm-4.025-13.656,1.543,1.543a.468.468,0,0,1,.137.332v1.906a2.348,2.348,0,0,1-1.875,2.3v3.8h1.406a.469.469,0,0,1,.469.469,2.362,2.362,0,0,0,2.344,2.375h3.75a2.362,2.362,0,0,0,2.344-2.375.469.469,0,0,1,.469-.469h1.406v-3.8a2.348,2.348,0,0,1-1.875-2.3v-1.906a.469.469,0,0,1,.137-.332l1.544-1.543-1.406-1.406h-1.259a2.348,2.348,0,0,1-2.3,1.875h-1.875a2.347,2.347,0,0,1-2.3-1.875h-1.26Zm4.025,11.781a1.432,1.432,0,0,1-1.406-1.438v-8.469a.469.469,0,0,1,.469-.469h5.625a.469.469,0,0,1,.469.469v8.469a1.432,1.432,0,0,1-1.406,1.438Zm-.469-1.438a.5.5,0,0,0,.469.5h3.75a.5.5,0,0,0,.469-.5v-.756l-2.2.732a.468.468,0,0,1-.148.024.468.468,0,0,1-.148-.024l-2.2-.732Zm0-1.744,2.344.781,2.344-.781v-.887l-2.2.732a.467.467,0,0,1-.148.024.467.467,0,0,1-.148-.024l-2.2-.732Zm0-1.875,2.344.781,2.344-.781v-.887l-2.2.732a.468.468,0,0,1-.148.024.468.468,0,0,1-.148-.024l-2.2-.732Zm0-1.875,2.344.781,2.344-.781v-.887l-2.2.732a.467.467,0,0,1-.148.024.467.467,0,0,1-.148-.024l-2.2-.732Zm0-1.875,2.344.781,2.344-.781v-.631h-4.687Z" transform="translate(2076.559 -120.5)" fill="#6f6f6f" stroke="rgba(0,0,0,0)" stroke-miterlimit="10" stroke-width="1"/>
</svg>
