<svg xmlns="http://www.w3.org/2000/svg" width="16.723" height="16" viewBox="0 0 16.723 16">
  <path id="icon-10" d="M121.839,213A7.835,7.835,0,0,0,114,220.839a8.149,8.149,0,0,0,.562,2.94h1.4v1.806l2.75,1.064L121.062,229l2.079-2.079-2.281-2.282v-.925a2.444,2.444,0,0,0,1.479-1.026l.609-.914a1.471,1.471,0,0,0,1.747-.935h6.029l-1.076-2.621A8.229,8.229,0,0,0,121.839,213Zm-4.9,10.779h2.94v.861l-1.017,1.017-1.923-.744Zm4.122,3.835-1.386-1.386.693-.693,1.386,1.386Zm.461-5.47a1.467,1.467,0,0,1-1.223.654h-5.037a6.865,6.865,0,0,1,6.575-8.819,7.362,7.362,0,0,1,6.709,4.107l-4.08,1.36a1.469,1.469,0,0,0-2.335,1.783Zm1.786-1.305a.49.49,0,1,1,.49-.49.491.491,0,0,1-.49.49Zm3.019-.98,2.581-.86.353.86Zm0,0" transform="translate(-114 -213)" fill="#6f6f6f"/>
</svg>
