<svg xmlns="http://www.w3.org/2000/svg" width="19.505" height="16" viewBox="0 0 19.505 16">
  <path id="icon-2" d="M122.038,239a11.553,11.553,0,0,0-6.827,2.234.572.572,0,0,0-.064.863l.63.63a9.2,9.2,0,0,0,1.1,12.117.571.571,0,0,0,.392.156h14.9a.572.572,0,0,0,.531-.361A11.427,11.427,0,0,0,122.038,239Zm-5.487,13.714h4.085l1,1.143H117.5a7.923,7.923,0,0,1-.947-1.143Zm15.222,1.143h-8.618l-1.829-2.09a.57.57,0,0,0-.43-.2H115.9a8.142,8.142,0,0,1-.759-3.429,8.011,8.011,0,0,1,1.835-5.1.572.572,0,0,0-.036-.768l-.5-.5a10.435,10.435,0,0,1,5.6-1.632,10.317,10.317,0,0,1,7.688,3.429h-5.974a2.86,2.86,0,0,0-2.857,2.857c0,1.561,1.374,2.923,3.973,3.939a17.9,17.9,0,0,0,5.777,1.2H132.3a10.222,10.222,0,0,1-.525,2.286Zm-1.127-3.429a16.925,16.925,0,0,1-5.361-1.126c-1.212-.474-3.246-1.477-3.246-2.874a1.716,1.716,0,0,1,1.714-1.714h6.865a10.2,10.2,0,0,1,1.744,5.714Zm0,0" transform="translate(-114 -239)" fill="#6f6f6f"/>
</svg>
