<svg xmlns="http://www.w3.org/2000/svg" xmlns:xlink="http://www.w3.org/1999/xlink" width="80" height="80" viewBox="0 0 80 80">
  <defs>
    <clipPath id="clip-path">
      <rect id="Rectangle_1825" data-name="Rectangle 1825" width="80" height="80" fill="none"/>
    </clipPath>
  </defs>
  <g id="ticket" clip-path="url(#clip-path)">
    <g id="ticket-2" data-name="ticket">
      <g id="Group_2713" data-name="Group 2713">
        <path id="Path_6340" data-name="Path 6340" d="M78.642,16.123a5.668,5.668,0,0,0-3.252-.869c.959-.03,1.66-.534,2.627-.569a10.067,10.067,0,0,0-2.6.278c-.561.128-1.04-.26-1.567.055,0,0-.115-.032-.121-.056-.109-.47-.74-.219-1.1-.173-1.081.139-2.178.066-3.246.276a.419.419,0,0,1-.548-.268c-.133-.188.245-.207.437-.211.939-.018,1.749-.512,2.737-.371a1.728,1.728,0,0,0,.525-.114c-.108-.317-.545-.389-1.028-.428.879-.28,1.957-.011,2.719-.606-.472-.005-.837-.229-1.254.087a2.457,2.457,0,0,1-1.234-.024,4.572,4.572,0,0,1,2.14-.271c-.143-.3-1.293-.12-.416-.7a5.269,5.269,0,0,1-2.451.056,1.7,1.7,0,0,1,.507-.29,3.607,3.607,0,0,1,1.127-.176c.166.021.535-.046.539-.2,0-.195-.345-.118-.536-.108a3.99,3.99,0,0,1-1.368-.16,3.634,3.634,0,0,0-1.77-.269c.641-.228,1.379-.077,2.192-.363l-2.88.08a4.543,4.543,0,0,0,.48-.2c.2-.118.8.021.635-.268-.084-.149-.582-.124-.919-.093-.1.009-.181.1-.284.116-.911.158-1.8.7-2.772.2a10.239,10.239,0,0,1,1.295-.3c-.071-.127-.509.025-.449-.18s.357-.176.555-.177a13.343,13.343,0,0,0,2.652-.5,16.373,16.373,0,0,1-2.217-.15c.394-.053.673-.077.937-.132.156-.032.342-.111.257-.227-.071-.1-.26,0-.352-.011-.451-.063-.726.155-1.079.225a10.747,10.747,0,0,1-1.524.13c-1.626.078-3.268.188-4.9.417a4.583,4.583,0,0,1,1.054-.258A.9.9,0,0,0,63.1,8.9a3.2,3.2,0,0,0-1.5.242.875.875,0,0,1-.55-.047l0,0c-.017-.213-.293-.091-.429-.073a14.327,14.327,0,0,0-1.553.252c-.38.092-.374.005-.474-.151-.143-.224.168-.178.312-.21.606-.135,1.252-.14,1.878-.248.9-.154,1.859-.3,2.8-.4.216-.022.521-.022.624-.262-1.475-.052-2.886.54-4.332.382.216-.239.744-.136.914-.433a10.138,10.138,0,0,0-1.8.246c0-.383-.012-.369.541-.3a3.39,3.39,0,0,0,.67-.062c-.012-.041-.008-.087-.039-.122-.111-.128-.115-.126-.008-.154a1.238,1.238,0,0,0,.667-.217c-1.292.113-2.437.373-3.6.55-.056.009-.2.047-.1.145.337.339.512.81,1.542.423a1.376,1.376,0,0,1,.754-.043.972.972,0,0,1-.618.235,15.352,15.352,0,0,0-2.846.536,1.292,1.292,0,0,1-1.222-.141c-.18-.211.444-.286.731-.374a11,11,0,0,1,1.258-.233c.089.255-.574.15-.442.412.554-.011.771-.253.7-.484-.088-.267-.5-.078-.772-.028a6.6,6.6,0,0,1-1.57.189l1.85-.411a10.214,10.214,0,0,0-2.154.3c-.154.04-.461.1-.4.165.387.391-.3.356-.569.464a8.8,8.8,0,0,1-1.571.468c-.345.068-.7.212-.431.445.233.206.043.3-.235.387-1.192.356-2.391.7-3.576,1.05-.213-.178.516-.457-.063-.439-.377.012-1.057.091-1.3.488a1.62,1.62,0,0,1,1.085.065,11.236,11.236,0,0,0-1.907.418c-.1-.247.524-.243.4-.583a3.455,3.455,0,0,1-1.65.544.529.529,0,0,0-.3.182c-.111.145-.219.326-.516.277a.923.923,0,0,1-.437-.306c-.218-.2-.042-.34.263-.479.236-.108.61-.141.68-.4a31.988,31.988,0,0,0-4.11,1.109c-.378.089-.462.127-.433.031.119-.4-.348-.169-.493-.118a13.9,13.9,0,0,1-2.163.393c-.6.11-1.151-.007-1.8.162a14.1,14.1,0,0,1-3.692.793,1.792,1.792,0,0,0-1.165.6c2.032-.51,3.974-.768,5.881-1.125a14.839,14.839,0,0,1-2.713.756c-.886.273-1.975.148-2.9.453-.136.045-.345.081-.4-.066-.029-.082-.056-.174-.26-.111-.139.042-.079.106-.043.169.1.182-.182.216-.329.189-.478-.089.14-.112.083-.2-.236-.372.446-.482.737-.713a18.979,18.979,0,0,0-3.248.495c-1.161.2-2.314.569-3.462.875A49.235,49.235,0,0,0,17.506,16.5a4.085,4.085,0,0,1-1.321.388c-.717.018-1.066.152-1.334.547a1.584,1.584,0,0,1-.928.346,1.653,1.653,0,0,0-.866.144c-.671.277-1.027.728-1.616,1.015-1.1.537-1.466,1.334-2.423,1.908-.1.061-.18.234-.117.273.347.213.084.449-.06.637-.238.313-.163.442.42.434.482,0,.841.133.627.415-.386.507.124.484.781.457-1.039.387-1.1,1.26-2.463,1.406a.241.241,0,0,0-.158.166c-.028.473-.58.829-.951,1.225-.109.116-.247.208-.213.366.076.353.757.552.575.968-.023.054.23.056.273.011a.685.685,0,0,1,.843-.041c.145.153.046.373-.174.558a5.145,5.145,0,0,0-1.136.863c1.524-.358,2.851-.81,4.226-.377-.043.227-.691.46-.4.823a6.692,6.692,0,0,1,1.588-.429c-.141.241-.516.24-.774.34-.178.069-.515.118-.413.271s.389.131.666.061a2.6,2.6,0,0,1,1.151-.233c-.526.152-.76.506-1.325.616-.193.038-.3.124-.246.231s.239.039.366.027a4.1,4.1,0,0,0,1.427-.355c.544-.262,1.149-.481,1.729-.719a2.469,2.469,0,0,1-.732.436c-.3.14-.122.252-.012.384.048.059-.047.185.179.124a1.394,1.394,0,0,0,.471-.225c.14-.111,0-.284.258-.411.134.124.051.241.067.349.053.351.271.057.427.012.113.21.759.05.695.189-.175.379.13.309.5.225.175-.039.4-.094.445.009s.043.27-.224.324c-.171.035-.392.037-.3.169a.5.5,0,0,0,.454.068,1.222,1.222,0,0,1,.868,0,3.14,3.14,0,0,0,2.014.468.6.6,0,0,1,.226.047c.4.108.628.463,1.259.221a.263.263,0,0,1,.147.031,1.064,1.064,0,0,0,1.215-.143c.131-.081.252-.152.406-.075.239.341-2.072.488-.262.93-.254.114-.6.174-.587.431.5-.142,1.324.008,1.357-.34.051-.542.71-.608,1.246-.713a19.178,19.178,0,0,0,2.906-.706c3.058-1.144,6.278-2.09,9.457-3.089q6.25-1.962,12.635-3.75a7.589,7.589,0,0,0,1.769-.5,13.448,13.448,0,0,1,2.806-.985,3.258,3.258,0,0,1,1.856-.244.347.347,0,0,0,.214-.063c.255-.374.913-.357,1.363-.535.505-.2,1.508-.226,1.166-.831-.259.015-.295.272-.345.23-.41-.336-.827,0-1.189.06-.956.159-1.891.379-2.993.607.263-.226.72-.265.447-.485-.127-.1.03-.173.159-.169.582.018.894-.325,1.409-.391.145-.019.423-.052.271-.176-.061-.05.023-.234-.412-.169a18.106,18.106,0,0,1-2.126.369,27.645,27.645,0,0,1,3.5-.9c.248-.061.138.157.087.259s-.13.22-.3.058c-.113-.1-.223-.1-.409-.027-.151.059-.227.122-.166.2a1.052,1.052,0,0,0,.722.422c.391.035,1.009.162,1.21-.193.111-.2.451-.145.554-.33.067-.121.579-.146.733-.026s.056.315-.3.393c-.082.018-.163.042-.24.067-.478.153-.178.377-.129.524.056.172.354.1.607-.009A5.9,5.9,0,0,0,61.7,20.6c.317.352.707.024.89-.07a4.307,4.307,0,0,1,1.087-.3c.931-.207,1.842-.454,2.922-.726-.59-.045-.912.289-1.311.12-.418-.177-.455-.2-.65.07a.523.523,0,0,1-.516.173,1.8,1.8,0,0,0-1.267.012.508.508,0,0,1-.3-.033c-.077-.045-.044-.145.067-.172.533-.129.952-.28.788-.671-.023-.057.107.023.179.018a6.615,6.615,0,0,1,1.1-.066c.509.053.755-.088.721-.324s.107-.283.41-.25c.5.054.149.179.024.3-.142.142-.032.257.24.18a6.284,6.284,0,0,0,1.5-.416c.2-.124.217-.278.587-.125s.58-.171.832-.261c.337-.121-.272-.094-.282-.23-.014-.18-.474-.321,0-.621.01.415.356.5.917.475.19-.01-.106.318.256.278s.13-.258.241-.382a.488.488,0,0,1,.271-.118c.127-.01.149.067.167.134.029.1-.212.226-.018.307,1.007-.166,1.986-.331,2.969-.487.169-.027.477-.081.412-.128-.64-.456.305-.305.51-.427a2.97,2.97,0,0,1,1.27-.2C76.743,16.579,77.438,15.891,78.642,16.123ZM16.415,29.46c-.156,0-.314.022-.471.035.334-.351,1.017-.473,1.446-.8C17.563,29.212,17.237,29.445,16.415,29.46ZM26.854,14.44a.808.808,0,0,1-.057.19c-.644-.107-1.039.413-1.785.292.405-.422,1.164-.373,1.665-.594A.122.122,0,0,1,26.854,14.44Zm22.56-3.152a.291.291,0,0,1-.182-.072c-.05-.1.113-.137.215-.195.406-.23.872.128,1.28-.151C50.4,11.184,49.827,11.13,49.414,11.288ZM53.94,9.611c-.492.065-.676.481-1.284.465-.134,0-.308.05-.366-.045-.026-.043.044-.12.1-.172a1.579,1.579,0,0,1,1.065-.6c.451-.024.717-.159.762.076C54.242,9.474,54.3,9.564,53.94,9.611Zm2.307.452c.016-.135.306-.065.376-.2-.263,0-.519,0-.775.012-.14.006-.273.193-.41.06-.164-.159.131-.172.3-.221s.2-.154.264-.248a.33.33,0,0,1,.339-.109c.552.114.657.107.987-.113C57.125,10.035,57.125,10.035,56.247,10.063Zm3.292-.513a.658.658,0,0,1,.346-.127A1.89,1.89,0,0,0,61.044,9.1c.368.377-.451.362-.649.554a.882.882,0,0,1-.738.049C59.579,9.661,59.45,9.616,59.539,9.55ZM58,9.694a1.294,1.294,0,0,1,.991-.054c.075.035.136.08.226.133a1.717,1.717,0,0,1-.5.106c-.278-.059-.61.191-.828-.018C57.819,9.8,57.9,9.727,58,9.694Zm.8,4.164c.142-.248.64-.251.949-.395.124-.058.321-.031.275.076-.113.265-.6.221-.87.35C59,13.908,58.753,13.943,58.8,13.858Zm4.174,5.411c-.679.134-1.284.3-1.289.775,0,.2-.276.13-.437.145-.3.029-.328-.114-.287-.223a3.276,3.276,0,0,1,.327-.571c.164-.253-.05-.273-.409-.238A2.123,2.123,0,0,0,62,18.66a.806.806,0,0,1,.753-.141c.29.1.1.227-.025.335C62.483,19.06,62.835,19.128,62.975,19.269Zm.978-1.233c-.581.147-.032.266-.055.4-.706-.023-.776-.083-.44-.413.115-.113-.015-.182-.044-.271a4.049,4.049,0,0,1-1.813.666,7.416,7.416,0,0,1,1.956-.819c.219.034.56-.117.653.091C64.268,17.816,64.181,17.979,63.953,18.036Zm3.116.328c-.863.093.168-.5-.638-.477-.519.018-.592.37-1.133.4a1.655,1.655,0,0,1,1.435-.549C67.134,17.784,67.016,18.126,67.069,18.364Z" fill="#ff1229"/>
        <path id="Path_6341" data-name="Path 6341" d="M44.426,10.661c.564-.112.534.031.146.35a2.892,2.892,0,0,0,1.093-.506c.121-.126.2-.263.472-.254.917.03,1.552-.484,2.444-.521a.43.43,0,0,0,.447-.392c-1.784.559-3.731.824-5.388,1.494C44.006,10.911,44.163,10.712,44.426,10.661Z" fill="#ff1229"/>
        <path id="Path_6342" data-name="Path 6342" d="M70.882,18.654c1.777-.12,3.463-.567,5.231-.8A24.406,24.406,0,0,0,70.882,18.654Z" fill="#ff1229"/>
        <path id="Path_6343" data-name="Path 6343" d="M68.446,18.989c-.7-.1-.887.246-1.252.387a11.816,11.816,0,0,0,3.22-.711A9.085,9.085,0,0,1,68.446,18.989Z" fill="#ff1229"/>
        <path id="Path_6344" data-name="Path 6344" d="M67.194,19.376c-.085.018-.169.036-.252.056A.826.826,0,0,0,67.194,19.376Z" fill="#ff1229"/>
        <path id="Path_6345" data-name="Path 6345" d="M79.946,17.014a.806.806,0,0,0-.518-.115l-2.335.316.029.13a9.651,9.651,0,0,0,1.385-.12c.3-.022.647-.219.883-.085a.441.441,0,0,0,.47.027C79.958,17.127,80.069,17.078,79.946,17.014Z" fill="#ff1229"/>
        <path id="Path_6346" data-name="Path 6346" d="M19.2,31.964c1.04-.4,1.05-.4,1.135-.772C19.574,31.388,19.554,31.4,19.2,31.964Z" fill="#ff1229"/>
        <path id="Path_6347" data-name="Path 6347" d="M66.73,7.468c.162-.006.246-.075.241-.172-.007-.169-.214-.111-.359-.081a2.544,2.544,0,0,0-.933.233C66,7.626,66.383,7.481,66.73,7.468Z" fill="#ff1229"/>
      </g>
      <g id="Group_2714" data-name="Group 2714">
        <path id="Path_6348" data-name="Path 6348" d="M3.316,22.4a2.694,2.694,0,0,1,1.148-.321c.254.018.88-.451.726.14-.016.06.267-.013.42-.055.89-.246,1.785-.485,2.7-.732.09-.135-.191-.139-.248-.23-.037-.058-.079-.127.028-.166a.6.6,0,0,1,.3-.01c.181.054.161.309.48.2s-.167-.246-.011-.309c.461-.188.666-.385.358-.709.6.056.347.336.474.48.1.108-.4.315-.047.282.267-.025.682.143.853-.109s.305-.144.555-.123a6.468,6.468,0,0,0,1.494-.238c.272-.042.27-.172.051-.228-.193-.049-.561-.016-.213-.243.213-.138.361-.151.513.04s.453.212.813-.019a5.264,5.264,0,0,1,.913-.359c.061-.023.1-.134.127-.081.169.363.613.323,1.13.224.108-.021.209.044.183.107a.33.33,0,0,1-.21.138,1.351,1.351,0,0,0-1,.463.547.547,0,0,1-.536.06c-.358-.134-.371-.1-.564.188s-.692.141-1.12.4c1.055-.193,1.957-.342,2.846-.53a4.5,4.5,0,0,1,1.081-.175c.215,0,.772.112.752-.277a6.754,6.754,0,0,0,1.128-.107c.286-.007.571-.066.484-.219-.074-.132-.009-.417-.5-.357-.08.01-.161.021-.239.038-.342.075-.569-.033-.539-.19s.451-.321.595-.253c.222.1.45-.062.687.048.428.2.816-.13,1.1-.3a.567.567,0,0,0,.245-.594c-.014-.085-.122-.1-.285-.095-.2.013-.292.051-.3.174-.013.188-.163.127-.282.067s-.371-.186-.13-.232a27.79,27.79,0,0,1,3.429-.611,16.645,16.645,0,0,1-1.95.509c-.391.112-.185.222-.2.283-.024.153.219.074.347.035.455-.141.961.007,1.4-.224.1-.052.276-.055.254.071-.047.271.342.131.721.207-1.04.235-1.941.414-2.812.648-.33.089-.913-.014-.979.4-.008.051-.231-.134-.446-.049.193.6,1,.239,1.548.206.489-.03.993-.289,1.478-.1a.372.372,0,0,0,.216-.031,2.834,2.834,0,0,1,1.643-.5,14.981,14.981,0,0,1,2.952-.287,7.871,7.871,0,0,0,1.768-.276q6.374-1.007,12.774-1.82c3.256-.416,6.505-.888,9.776-1.146a19.123,19.123,0,0,0,2.819-.539c.5-.119,1.068-.314,1.522.085.29.256.823-.167,1.323-.244-.185-.2-.5-.12-.789-.114,1.084-1.016-.842-.267-.914-.619.062-.117.212-.107.376-.093.459.038.9.05,1.062-.343a.158.158,0,0,1,.092-.079c.679-.049.591-.409.819-.641.042-.042.082-.1.142-.12.853-.224.936-.7,1.224-1.112a.894.894,0,0,1,.677-.328c.173-.021.319-.143.3-.222-.026-.137-.2-.056-.361-.019a.348.348,0,0,1-.424-.166c-.042-.1.176-.138.343-.173.353-.073.645-.133.22-.359-.157-.084.472-.2.4-.406.157-.023.552.123.326-.168-.069-.089-.225-.149-.214-.294.3,0,.322.187.516.22a1.694,1.694,0,0,0,.541,0c.225-.037.053-.1.046-.162-.015-.143.042-.3-.3-.291a3.4,3.4,0,0,1-.906-.064c.635-.033,1.277-.09,1.905-.09a4.1,4.1,0,0,0,1.39-.259c.108-.038.3-.05.266-.157s-.189-.129-.368-.086c-.529.125-.982-.061-1.51.019a2.465,2.465,0,0,1,1.081-.25c.271-.049.513-.139.476-.3s-.338-.068-.531-.055c-.279.019-.572.159-.866.026a6.833,6.833,0,0,1,1.573-.261c-.05-.389-.735-.326-.942-.486.749-.846,2.135-.992,3.6-1.285a7.652,7.652,0,0,0-1.55-.242c-.314-.061-.559-.193-.562-.365a.524.524,0,0,1,.693-.283c.069.019.266-.077.206-.11-.46-.253-.077-.661-.287-.962-.094-.134-.273-.154-.446-.2a4.312,4.312,0,0,1-1.68-.591.378.378,0,0,0-.251-.068c-1.176.393-1.894-.255-3-.166.536-.225.954-.4.264-.644-.383-.137-.207-.378.176-.554.463-.212.425-.339,0-.491-.256-.092-.642-.176-.532-.47.019-.052-.174-.157-.3-.166C57.658.666,56.764.187,55.491.184c-.681,0-1.3-.217-2.042-.18a1.5,1.5,0,0,0-.79.212,1.81,1.81,0,0,1-.991.079A1.66,1.66,0,0,0,50.2.371a4.313,4.313,0,0,1-1.332.194,51.234,51.234,0,0,0-5.809.883c-1.134.192-2.317.34-3.384.616a16.974,16.974,0,0,0-2.926.829c.4.07,1.023-.1,1.122.276.023.09.526-.123.219.124-.1.076-.344.156-.4-.023-.02-.061-.022-.133-.163-.114-.208.028-.159.109-.119.182.071.133-.119.184-.261.2-.961.11-1.72.613-2.624.732a15.154,15.154,0,0,1-2.7.429c1.768-.436,3.488-.961,5.472-1.325a2.241,2.241,0,0,0-1.369-.026,13.589,13.589,0,0,1-3.5.765,15.822,15.822,0,0,0-1.533.546,13.034,13.034,0,0,1-2,.5c-.152.014-.692.013-.3.274.1.064,0,.066-.363.138a32.72,32.72,0,0,0-4.07.678c.253.174.572.061.839.056.345-.007.593.038.572.271-.012.134.015.3-.11.4-.2.148-.419.049-.616-.021a.722.722,0,0,0-.376-.028,3.748,3.748,0,0,1-1.709.2c.162.308.65.072.759.3a10.879,10.879,0,0,0-1.815.389,1.127,1.127,0,0,1,.8-.455,1.846,1.846,0,0,0-1.389.107c-.468.2.316.146.285.363C20.208,8,19,8.183,17.8,8.352c-.281.04-.5.035-.479-.21.03-.278-.356-.259-.678-.183a9.268,9.268,0,0,1-1.59.225c-.293.018-.806.3-.8-.145,0-.072-.287-.006-.438.02a8.923,8.923,0,0,0-1.916.577l1.765-.373a5.67,5.67,0,0,1-1.375.44c-.253.063-.719.071-.585.309.117.206.472.312.915.113-.1-.251-.537.077-.661-.152a10.023,10.023,0,0,1,1.166-.289c.292-.039.838-.215.858.015.016.193-.283.494-.851.565a14.276,14.276,0,0,0-2.643.647,1.112,1.112,0,0,1-.664.05,1.1,1.1,0,0,1,.625-.248c1.1-.086.881-.515.887-.9,0-.112-.14-.088-.191-.074-1.05.3-2.148.525-3.247.921a1.318,1.318,0,0,0,.688-.083c.1-.018.1-.017.111.123,0,.038.041.072.063.108a2.754,2.754,0,0,0,.573-.2c.382-.259.365-.267.654.03a9.037,9.037,0,0,0-1.6.482c.36.166.7-.11,1.048-.007-1.015.661-2.574.731-3.692,1.322a.782.782,0,0,0,.69-.031c.817-.277,1.684-.523,2.505-.738.573-.151,1.084-.388,1.662-.51.137-.029.347-.18.4.046.041.158.112.223-.257.293a13.148,13.148,0,0,0-1.41.385c-.121.037-.43.046-.281.216h0a.587.587,0,0,1-.4.241,2.875,2.875,0,0,0-1.364.374,1.1,1.1,0,0,0,1.036-.023,4.575,4.575,0,0,1,1.023-.194C7.9,11.925,6.526,12.453,5.19,13a8.781,8.781,0,0,1-1.3.468c-.33.078-.712.012-1.018.229-.062.044-.286.038-.268.14.022.121.228.112.375.079.249-.056.486-.142.836-.248a11.113,11.113,0,0,1-1.625.943,12.482,12.482,0,0,0,2.464-.6c.156-.073.379-.2.57-.071s-.256.183-.216.307a10.01,10.01,0,0,1,1.247-.251c-.383.75-1.493.661-2.328.88-.094.025-.228-.014-.312.016-.288.1-.7.268-.65.415.093.283.459-.048.7-.03.112.008.237-.01.529-.026L1.879,16.26c.857-.082,1.321-.474,2-.537a2.257,2.257,0,0,0-1.184.868,2.578,2.578,0,0,1-.951.633c-.158.064-.491.135-.339.283.124.121.465.035.579-.043A3.228,3.228,0,0,1,3,17.179a2.257,2.257,0,0,1,.62.035,4,4,0,0,1-1.967.87c1.131.122.092.412.208.7.5-.473,1.246-.421,1.886-.589a1.8,1.8,0,0,1-.95.479c-.568-.089-.683.221-1.05.4,1.051.175,1.692-.435,2.6-.546-.349.211-.637.429-.48.714a1.712,1.712,0,0,0,.5-.108c.667-.478,1.679-.4,2.431-.735.153-.069.464-.195.5,0,.023.111.174.316-.225.411-1,.236-1.8.7-2.758,1-.317.1-1,.141-.731.544.014.021-.047.089-.052.088-.653-.046-.734.431-1.272.542A8.5,8.5,0,0,0,0,21.734c.785-.333,1.72-.206,2.495-.541A3.236,3.236,0,0,0,.606,23.077C1.374,22.449,2.443,22.72,3.316,22.4ZM58.262,9.93A17.134,17.134,0,0,1,60,10c-.134.049-.272.093-.4.149C58.951,10.448,58.517,10.39,58.262,9.93ZM40.018,2.31c.562-.016,1.12-.337,1.76-.163-.494.371-1.2.118-1.624.441a1.605,1.605,0,0,1-.19-.126C39.909,2.412,39.9,2.314,40.018,2.31Zm-21.51,6.3c.533.063.626-.387,1.12-.361.124.007.282-.023.317.07.013.034-.058.122-.088.124C19.413,8.478,19.006,8.733,18.508,8.613Zm-3.9.12c-.145-.2.167-.193.538-.343a2.071,2.071,0,0,1,1.292.063c.083.02.2.053.209.1.027.1-.151.118-.253.171-.465.239-.927-.013-1.362.121C14.71,8.938,14.686,8.848,14.6,8.733ZM12.09,9.824a.849.849,0,0,0,.861-.281A.36.36,0,0,1,13.3,9.5a.669.669,0,0,0,.4.093c.171-.025.412-.125.4.059-.006.153-.252.059-.367.106-.21.087-.409.184-.617.28.155.076.33-.086.445.012C12.851,10.356,12.851,10.356,12.09,9.824Zm-1.482,1.218a.73.73,0,0,1-.617.237c-.3-.075-.932.243-.931-.185a1.956,1.956,0,0,0,1.157-.181.742.742,0,0,1,.369-.031C10.706,10.9,10.64,10.983,10.608,11.042Zm1.513-.537c-.012.243-.463.174-.636.323a1.632,1.632,0,0,1-.473.1,1.45,1.45,0,0,1,.075-.187c.143-.241.479-.294.819-.328C12.007,10.407,12.124,10.431,12.121,10.505Zm2.074,3.58c-.306,0-.658.217-.949.055-.118-.066.016-.16.158-.162.353,0,.746-.187,1.045-.049C14.552,13.976,14.329,14.043,14.195,14.085Zm.984,5.161C15,19.21,14.752,19.181,14.9,19a.753.753,0,0,1,.7-.172,2.6,2.6,0,0,0,1.256-.033c-.309.107-.461.2-.14.336a5.45,5.45,0,0,1,.692.319c.115.068.2.189-.054.278-.139.048-.3.209-.455.051-.367-.365-.967-.267-1.6-.116C15.3,19.5,15.526,19.315,15.179,19.246ZM13.123,18.9c-.085-.195.3-.206.443-.314a8.847,8.847,0,0,1,2.159-.1,4.608,4.608,0,0,1-1.93.163c.045.079,0,.181.173.225.514.129.506.2-.031.483-.117-.091.223-.388-.345-.284A.427.427,0,0,1,13.123,18.9Zm-1.944.978a1.871,1.871,0,0,1,1.544-.113c-.443.183-.768-.061-1.189.118-.654.28.61.356-.137.607C11.257,20.285,10.9,20.065,11.179,19.877Z" fill="#ff1229"/>
        <path id="Path_6349" data-name="Path 6349" d="M23.293,6.1c-.527.125-.395.224.153.325a3.629,3.629,0,0,1-1.244.018.683.683,0,0,0-.564-.02c-.7.364-1.587.205-2.315.509a.626.626,0,0,1-.65-.136c1.827-.233,3.556-.755,5.368-.856C23.813,6.138,23.539,6.043,23.293,6.1Z" fill="#ff1229"/>
        <path id="Path_6350" data-name="Path 6350" d="M8.625,22.135c-1.486.57-3.15.854-4.713,1.335A21.78,21.78,0,0,1,8.625,22.135Z" fill="#ff1229"/>
        <path id="Path_6351" data-name="Path 6351" d="M10.792,21.484c.474-.339.884-.141,1.278-.168A11.445,11.445,0,0,1,9,21.968,8.212,8.212,0,0,0,10.792,21.484Z" fill="#ff1229"/>
        <path id="Path_6352" data-name="Path 6352" d="M12.07,21.316c.08-.018.16-.036.24-.051A.811.811,0,0,1,12.07,21.316Z" fill="#ff1229"/>
        <path id="Path_6353" data-name="Path 6353" d="M.262,24.25a.473.473,0,0,1,.319-.282l2.073-.627.076.111a7.984,7.984,0,0,1-1.178.424c-.256.1-.675.073-.758.263-.066.153-.146.187-.348.2C.339,24.342.214,24.345.262,24.25Z" fill="#ff1229"/>
        <path id="Path_6354" data-name="Path 6354" d="M59.326,13.125c-1.118.081-1.131.08-1.479-.173A1.76,1.76,0,0,1,59.326,13.125Z" fill="#ff1229"/>
        <path id="Path_6355" data-name="Path 6355" d="M3.356,11.958a.274.274,0,0,1-.321-.043c-.122-.133.084-.165.221-.2a2.544,2.544,0,0,1,.909-.168C4.045,11.81,3.638,11.838,3.356,11.958Z" fill="#ff1229"/>
      </g>
    </g>
  </g>
</svg>
